<svg width="994" height="574" viewBox="0 0 994 574" fill="none" xmlns="http://www.w3.org/2000/svg">
<path d="M394.509 354.578C394.509 355.206 394.463 355.816 394.43 356.39C394.396 356.969 394.375 357.514 394.418 358.036C394.498 359 394.797 359.886 395.673 360.716L395.855 360.881L395.862 360.886L395.868 360.892C397.08 362.086 398.825 362.844 400.704 363.5C402.56 364.148 404.562 364.7 406.19 365.479C409.25 366.654 411.997 368.655 413.83 371.232L414.185 371.755L414.191 371.765L414.325 372.005C414.967 373.213 415.221 374.482 415.432 375.752C415.657 377.114 415.832 378.47 416.355 379.828L416.562 380.268C417.074 381.27 417.77 382.121 418.546 382.923C418.989 383.382 419.456 383.823 419.927 384.268C420.394 384.709 420.866 385.155 421.316 385.62C424.916 388.726 427.802 392.147 429.968 396.194L430.467 397.127C435.56 406.825 438.706 417.907 442.172 428.071L442.433 428.836C443.018 430.639 443.417 432.552 443.215 434.328C442.982 436.377 441.949 438.229 439.544 439.505L439.542 439.506C435.875 441.404 431.138 441.079 427.516 439.829L427.508 439.827C426.692 439.514 425.899 439.142 425.13 438.791C424.357 438.439 423.606 438.106 422.858 437.86C421.37 437.369 419.919 437.228 418.385 437.963L418.372 437.97L418.358 437.975C417.492 438.274 416.801 438.72 416.074 439.151C415.359 439.575 414.615 439.977 413.683 440.143C411.793 440.787 409.57 440.13 407.766 439.197V439.196C407.562 439.105 407.346 438.959 407.135 438.796C406.916 438.627 406.686 438.429 406.463 438.237C406.238 438.042 406.019 437.854 405.812 437.695C405.604 437.534 405.422 437.415 405.272 437.35C404.632 437.074 404.074 437.138 403.486 437.355C403.188 437.465 402.886 437.613 402.561 437.778C402.239 437.94 401.894 438.118 401.527 438.277L401.516 438.282C397.32 439.855 392.583 439.304 389.027 437.299C387.185 436.26 385.653 434.824 384.679 433.084C379.18 436.943 376.622 443.194 378.013 449.431C379.077 453.404 380.555 457.233 377.984 461.358C376.155 464.512 372.862 466.404 369.663 468.55C365.607 471.288 363.658 475.169 362.141 479.327C361.761 480.366 361.41 481.421 361.059 482.479C360.707 483.536 360.356 484.597 359.979 485.644C359.228 487.735 358.369 489.779 357.192 491.654L357.193 491.655C354.918 495.58 350.981 499.006 346.393 500.638C347.599 501.039 348.848 501.399 349.995 501.763C351.265 502.166 352.414 502.58 353.163 503.063C354.247 503.61 355.218 504.251 356.138 504.876C357.067 505.508 357.939 506.118 358.845 506.613C360.639 507.594 362.542 508.115 365.153 507.365L365.158 507.363C369.225 506.295 372.413 503.856 375.691 501.377C378.958 498.907 382.312 496.402 386.67 495.306L387.316 495.154C394.004 493.669 401.054 494.938 406.745 498.034C412.617 501.228 417.07 506.384 418.163 512.504C418.444 513.575 418.208 514.449 417.651 515.075C417.101 515.694 416.262 516.042 415.387 516.123C413.647 516.285 411.608 515.392 411.22 513.213L411.219 513.208C410.694 509.89 408.591 507.006 405.672 504.87C402.753 502.734 399.033 501.359 395.313 501.053L395.31 501.052C390.727 500.596 387.2 502.112 383.956 504.258C382.33 505.334 380.782 506.563 379.204 507.784C377.63 509.001 376.028 510.208 374.311 511.221L374.31 511.22C370.337 513.711 366.35 514.966 362.441 514.927C358.529 514.888 354.715 513.552 351.094 510.898H351.093C349.507 509.836 347.541 509.015 345.468 508.235C343.401 507.456 341.222 506.716 339.263 505.823C337.302 504.928 335.528 503.867 334.267 502.427C332.998 500.979 332.259 499.158 332.351 496.776C332.357 494.115 335.045 492.187 338.03 492.83L338.034 492.831C340.668 493.437 342.777 493.075 344.499 492.113C346.228 491.147 347.589 489.565 348.696 487.693C350.92 483.934 352.068 479.117 353.156 475.99L353.159 475.982C354.594 472.27 356.042 468.83 358.944 465.701L358.952 465.692C360.225 464.437 361.677 463.421 363.158 462.453C364.646 461.482 366.156 460.563 367.581 459.488C368.531 458.742 369.082 457.949 369.378 457.125C369.675 456.297 369.721 455.419 369.634 454.495C369.546 453.567 369.326 452.608 369.101 451.614C368.877 450.626 368.649 449.604 368.558 448.58V448.579C368.196 445.147 368.557 441.701 370.014 438.561C372.557 431.995 378.353 427.011 385.564 424.212C386.706 423.723 388.293 423.728 389.554 424.211C390.189 424.455 390.759 424.827 391.147 425.337C391.54 425.853 391.737 426.498 391.639 427.259V427.263C391.468 428.442 391.725 429.533 392.352 430.362C392.938 431.137 393.862 431.702 395.107 431.892L395.361 431.925L395.37 431.926L395.559 431.948C396.508 432.025 397.55 431.681 398.641 431.21C399.776 430.721 400.979 430.085 402.073 429.77C403.911 429.139 406.122 429.135 407.979 430.089C408.543 430.332 408.988 430.635 409.372 430.932C409.769 431.238 410.066 431.507 410.397 431.736C410.715 431.955 411.026 432.107 411.394 432.158C411.762 432.208 412.211 432.16 412.809 431.94C413.334 431.713 413.818 431.467 414.291 431.222C414.764 430.977 415.231 430.732 415.709 430.516C416.671 430.081 417.693 429.76 418.993 429.76C421.54 429.76 423.53 430.241 425.677 430.986L426.608 431.321L426.621 431.326H426.62C427.345 431.638 428.495 432.172 429.689 432.554C430.286 432.745 430.885 432.894 431.44 432.959C431.998 433.025 432.494 433.002 432.893 432.865C433.303 432.723 433.479 432.547 433.553 432.381C433.629 432.209 433.624 431.988 433.541 431.703C433.458 431.417 433.311 431.107 433.152 430.774C433.001 430.457 432.838 430.117 432.741 429.79L432.203 428.4C432.024 427.936 431.845 427.472 431.666 427.008L431.662 427V426.999C428.425 417.692 425.931 407.232 420.571 398.296L420.569 398.293C419.331 396.158 417.737 394.399 415.996 392.705C414.266 391.023 412.361 389.377 410.568 387.522L410.567 387.52C407.287 384.062 406.915 380.893 405.847 376.902L405.845 376.893C405.16 373.94 402.416 372.356 399.096 371.04C398.271 370.714 397.417 370.406 396.559 370.098C395.701 369.79 394.838 369.483 394 369.158C392.328 368.509 390.737 367.786 389.456 366.84C385.803 364.32 384.335 360.846 384.33 357.07L384.271 356.139C384.149 353.966 384.145 351.791 384.105 349.598C384.061 347.088 383.972 344.549 383.615 341.937V341.935C383.259 339.172 382.547 336.72 381.828 333.928V333.927C381.74 333.623 381.669 333.339 381.605 333.112C381.539 332.873 381.476 332.677 381.396 332.502C381.243 332.173 381.017 331.903 380.529 331.62C380.391 331.562 380.184 331.526 379.918 331.512C379.652 331.498 379.349 331.507 379.039 331.526C378.729 331.545 378.42 331.574 378.138 331.598C377.86 331.622 377.602 331.643 377.41 331.643H377.401L377.393 331.642C373.031 331.329 369.386 329.447 366.831 326.307C366.101 325.52 365.461 324.573 364.796 323.656C364.125 322.731 363.423 321.823 362.55 321.071L362.541 321.064L362.533 321.055C361.629 320.119 361.05 319.638 360.461 319.502C359.889 319.371 359.247 319.556 358.177 320.171C354.552 322.358 350.519 323.32 346.475 321.417C344.469 320.474 342.833 319.139 341.347 317.741C339.845 316.328 338.53 314.887 337.098 313.652C334.261 311.205 331.427 309.983 328.19 308.432V308.431C325.321 307.193 322.34 305.716 319.984 303.762C317.628 301.808 315.882 299.366 315.508 296.203C315.46 296.064 315.442 295.923 315.469 295.786C315.498 295.635 315.573 295.507 315.68 295.405C315.886 295.207 316.2 295.11 316.543 295.089C317.237 295.046 318.188 295.301 319.12 295.944L319.161 295.972L319.188 296.014C321.651 299.806 325.706 301.87 330.219 303.45C332.475 304.239 334.829 304.903 337.148 305.605C339.461 306.305 341.736 307.043 343.812 307.977C345.722 308.801 347.625 310.101 349.278 311.454L349.971 312.036L350.003 312.064L350.023 312.1C350.176 312.363 350.41 312.57 350.718 312.797C351.015 313.017 351.395 313.265 351.763 313.581C351.917 313.715 352.018 313.734 352.085 313.72C352.16 313.704 352.292 313.625 352.459 313.336L352.5 313.265L352.576 313.233C352.726 313.168 352.908 313.048 353.124 312.885C353.34 312.723 353.567 312.537 353.82 312.338C354.306 311.957 354.873 311.544 355.457 311.371C360.959 308.853 366.792 311.392 370.414 315.136L370.717 315.437C371.412 316.15 372.025 316.94 372.614 317.727C373.291 318.632 373.932 319.528 374.641 320.329C376.047 321.921 377.687 323.105 380.278 323.105C382.98 323.105 385.356 323.414 387.289 324.367C389.112 325.265 390.523 326.726 391.447 328.989L391.626 329.453L391.628 329.456C393.431 334.743 394.149 340.643 394.508 345.906L394.509 345.913V354.578Z" fill="white" stroke="white" stroke-width="0.5"/>
<path d="M481.602 423.787C492.464 419.432 504.32 417.423 516.513 418.324L516.514 418.323C518.974 418.486 520.242 420.217 520.242 421.896C520.242 422.731 519.928 423.554 519.289 424.147C518.648 424.742 517.703 425.086 516.48 425.005C507.193 424.389 497.904 425.621 488.969 428.395C485.747 429.476 480.759 431.398 476.982 434.003C475.092 435.307 473.525 436.77 472.628 438.365C472.086 439.327 471.79 440.339 471.812 441.4C478.388 442.898 483.94 447.228 485.196 453.457L485.198 453.465C486.295 460.085 482.274 466.988 475.376 470.119L475.368 470.122C471.199 471.841 466.855 472.073 462.554 472.189C458.239 472.305 453.976 472.306 449.893 473.531C447.95 474.141 446.286 475.201 444.469 476.141C442.663 477.075 440.739 477.87 438.35 477.87C436.72 477.87 435.211 477.558 433.846 477C431.441 481.683 428.728 486.364 426.019 491.038C425.424 492.063 424.254 492.55 423.087 492.63C421.92 492.711 420.684 492.392 419.904 491.72L419.895 491.712V491.711C418.955 490.82 418.015 489.951 417.075 489.096C417.801 497.018 418.166 504.94 418.166 512.862C418.166 514.119 417.12 514.802 416.109 514.926C415.598 514.989 415.064 514.918 414.626 514.693C414.182 514.465 413.834 514.078 413.728 513.528V513.527C411.218 502.396 409.065 491.258 407.988 479.807L407.989 479.806C407.795 478.102 408.992 476.939 410.443 476.455C411.801 476.001 413.47 476.104 414.629 476.943L414.854 477.121L414.862 477.128C416.652 478.826 418.443 480.448 420.235 482.071C420.82 482.601 421.404 483.133 421.989 483.666C424.569 479.336 426.892 474.873 428.799 470.411L428.805 470.397L428.812 470.383C430.332 467.763 434.127 467.431 436.032 469.731L436.034 469.733C436.627 470.464 437.27 470.815 437.933 470.929C438.603 471.045 439.319 470.922 440.059 470.66C440.798 470.397 441.544 470.001 442.27 469.586C442.987 469.177 443.697 468.744 444.333 468.43L444.345 468.424L445.158 468.088C447.057 467.338 448.958 466.825 450.86 466.551C453.385 466.086 455.996 465.931 458.592 465.815C461.197 465.699 463.783 465.623 466.28 465.315L466.282 465.314C468.953 465.007 471.692 464.318 473.845 463.03C475.991 461.746 477.546 459.873 477.893 457.184V457.18C478.581 452.432 474.096 448.187 468.448 447.882L468.434 447.881L468.419 447.878C467.506 447.721 466.751 447.481 466.128 447.068C465.501 446.652 465.025 446.071 464.65 445.264L464.646 445.254C462.624 440.34 464.386 435.988 467.742 432.428C471.092 428.875 476.058 426.077 480.554 424.215L481.602 423.787Z" fill="white" stroke="white" stroke-width="0.5"/>
<path d="M546.615 414.613C550.407 414.613 554.387 415.313 557.742 416.838C561.097 418.363 563.846 420.723 565.131 424.048C565.863 425.942 565.942 427.567 565.506 428.928C565.07 430.29 564.128 431.357 562.881 432.154C560.396 433.741 556.659 434.281 553.047 433.969H553.046C547.951 433.515 542.769 432.911 537.587 432.269C537.682 432.395 537.774 432.523 537.861 432.655L537.863 432.657H537.862C539.418 435.042 539.44 437.64 538.423 439.887C542.334 440.975 546.026 442.499 549.674 444.119C555.691 446.791 561.58 449.715 568.186 451.409L568.19 451.41C572.102 452.483 576.018 452.715 579.951 452.676C581.918 452.657 583.885 452.57 585.858 452.488C587.83 452.406 589.806 452.329 591.783 452.329C599.329 452.329 606.876 453.258 614.064 455.117C616.756 455.736 620.086 456.589 623.149 457.755C626.203 458.916 629.029 460.402 630.685 462.304C631.613 463.345 632.006 464.372 631.976 465.363C631.945 466.349 631.497 467.26 630.826 468.079C629.489 469.708 627.206 471.041 625.229 471.971L625.226 471.973C613.767 477.223 603.032 483.086 593.373 490.18L591.628 491.585C587.56 494.89 583.525 498.403 579.766 501.916L579.759 501.923L579.758 501.922C578.328 503.155 577.269 504.069 576.211 505.283C576.072 505.522 575.881 505.85 575.658 506.199C576.599 505.911 577.535 505.708 578.46 505.508L579.402 505.281C583.959 504.199 588.547 503.441 593.146 504.186L593.621 504.269L593.629 504.27L593.636 504.272C596.157 504.893 598.712 505.832 600.55 507.417L600.561 507.426L600.57 507.436C601.294 508.216 601.926 508.995 602.553 509.767C603.178 510.537 603.797 511.3 604.503 512.062C605.676 513.068 607.018 513.152 608.517 513C609.282 512.922 610.034 512.791 610.854 512.691C611.656 512.594 612.483 512.533 613.315 512.613L613.327 512.614C615.381 512.909 617.441 513.758 618.906 514.911L619.191 515.146L619.199 515.153C623.21 518.926 624.293 524.571 625.009 529.199L625.106 529.723C626.069 535.136 625.696 540.269 624.65 545.678C624.288 548.482 623.669 551.531 623.669 554.48C623.669 557.33 624.25 560.035 626.188 562.252L626.381 562.465C630.422 566.858 636.053 567.557 641.651 566.408C647.251 565.258 652.773 562.264 656.514 559.345C658.744 557.575 660.843 555.631 662.926 553.652C665.006 551.675 667.073 549.66 669.229 547.762C673.54 543.967 678.231 540.617 684.193 538.901C685.743 538.4 687.11 539.07 687.794 540.081C688.135 540.586 688.312 541.185 688.249 541.774C688.186 542.363 687.883 542.921 687.301 543.346L687.302 543.347C682.261 547.695 676.913 551.688 671.894 556.326L671.887 556.332C666.885 560.645 662.195 565.309 656.072 568.726L656.071 568.725C646.345 574.316 632.615 576.208 622.828 569.332L622.312 568.962C619.794 567.098 618.147 565.009 617.114 562.767C616.014 560.378 615.618 557.829 615.596 555.216C615.573 552.606 615.924 549.923 616.321 547.265C616.72 544.601 617.166 541.968 617.345 539.43C617.524 536.654 617.612 533.503 617.256 530.434C616.9 527.364 616.101 524.392 614.517 521.964L614.51 521.954L614.505 521.944C614.077 521.132 613.574 520.652 613.019 520.375C612.459 520.096 611.82 520.01 611.103 520.029C610.382 520.048 609.604 520.17 608.763 520.292C607.928 520.412 607.038 520.531 606.122 520.531C604.173 520.531 602.518 519.795 600.925 518.776L600.233 518.315L600.224 518.306C599.305 517.514 598.574 516.566 597.859 515.642C597.14 514.712 596.437 513.805 595.563 513.051C593.851 511.575 591.073 511.258 588.588 511.564H588.586C585.925 511.87 583.267 512.787 580.606 513.565C577.962 514.338 575.319 514.972 572.754 514.656L572.751 514.655C570.343 514.335 568.66 513.052 567.726 511.36C566.795 509.674 566.613 507.595 567.167 505.682L567.168 505.677C567.903 503.302 569.549 501.18 571.441 499.276C573.331 497.375 575.497 495.662 577.277 494.127C586.256 486.074 596.668 478.953 607.437 473.072L607.446 473.067C609.939 471.839 612.815 470.288 615.685 469.049C617.139 468.114 618.96 467.483 620.362 466.879L620.377 466.873L620.393 466.868C620.903 466.721 621.587 466.353 622.324 465.995C622.504 465.907 622.687 465.822 622.867 465.742C622.717 465.648 622.589 465.555 622.491 465.475C621.606 465.169 620.808 464.864 620.014 464.559C619.207 464.25 618.403 463.943 617.512 463.635L617.503 463.632L617.495 463.629C614.651 462.402 611.086 461.479 607.868 460.862H607.867C600.73 459.477 593.591 459.784 586.456 459.939C579.332 460.094 572.218 460.095 565.188 458.074H565.185V458.073C559.429 456.367 554.027 453.65 548.575 451.222C543.115 448.791 537.591 446.641 531.541 446.026C529.294 445.864 527.843 444.482 527.55 442.925C527.404 442.148 527.55 441.337 528.025 440.637C528.484 439.963 529.239 439.407 530.299 439.08C530.278 438.956 530.258 438.832 530.237 438.708L530.185 438.389L530.506 438.418C530.92 438.454 531.332 438.498 531.74 438.547C531.744 438.544 531.748 438.542 531.752 438.539C531.849 438.457 531.888 438.388 531.901 438.335C531.914 438.283 531.911 438.219 531.874 438.134C531.793 437.95 531.576 437.721 531.214 437.462C530.86 437.208 530.4 436.946 529.88 436.688C527.794 435.655 524.854 434.733 524.32 434.58L524.306 434.575L524.291 434.569C520.662 433.004 518.422 430.782 518.048 427.264C517.851 425.903 518.552 424.887 519.603 424.269C520.643 423.657 522.045 423.42 523.345 423.58C527.108 424.043 530.962 424.508 534.815 424.971C538.669 425.435 542.523 425.898 546.287 426.362H546.286C547.904 426.517 549.522 426.75 551.132 426.981C552.744 427.213 554.35 427.443 555.954 427.597H555.955C556.928 427.674 557.516 427.572 557.837 427.396C557.991 427.312 558.076 427.214 558.121 427.114C558.167 427.013 558.181 426.886 558.154 426.73C558.098 426.409 557.873 426.006 557.509 425.574C557.149 425.148 556.672 424.717 556.148 424.341L556.138 424.333C553.686 422.37 550.52 421.604 547.184 421.412C543.847 421.22 540.373 421.603 537.32 421.913L537.319 421.912C530.146 422.84 522.614 423.459 515.449 424.077C514.492 424.159 513.746 423.891 513.223 423.396C512.704 422.906 512.428 422.217 512.356 421.496C512.215 420.068 512.87 418.406 514.242 417.73L514.281 417.711L514.324 417.706C525.059 416.471 535.842 414.613 546.615 414.613Z" fill="white" stroke="white" stroke-width="0.5"/>
<path d="M761.249 502.722C761.264 502.764 761.287 502.817 761.318 502.88C761.381 503.007 761.467 503.154 761.558 503.31C761.606 503.394 761.656 503.48 761.703 503.565C761.757 503.519 761.812 503.471 761.867 503.423C762.814 501.827 764.83 500.499 766.968 499.462C768.865 498.542 770.898 497.832 772.462 497.357L773.102 497.167C777.077 495.922 781.409 495.611 785.738 496.231C787.554 496.388 789.474 496.858 791.037 497.73C792.602 498.603 793.829 499.892 794.207 501.684C794.582 503.465 794.108 504.922 793.277 506.236C792.457 507.532 791.266 508.72 790.208 509.937L790.201 509.946C788.641 511.59 788.203 513.382 787.892 515.263C787.582 517.13 787.396 519.115 786.298 521.016C784.831 523.863 781.91 526.059 779.042 527.914L779.036 527.917C775.418 530.102 771.444 531.346 767.13 532.276L767.123 532.278L767.115 532.279C765.165 532.585 762.987 533.052 760.83 533.285C758.665 533.518 756.474 533.521 754.455 532.888L754.451 532.887C752.073 532.098 750.245 530.599 748.42 529.217C746.585 527.828 744.743 526.546 742.297 526.094L742.289 526.093C738.072 525.184 733.839 526.391 730.293 528.53L729.698 528.939C726.752 531.016 724.243 533.522 721.582 535.889C718.753 538.406 715.767 540.751 711.958 542.159C707.961 543.724 703.613 543.72 699.307 543.411C698.226 543.333 697.119 543.197 696.027 543.082C694.931 542.966 693.844 542.87 692.782 542.87C690.661 542.87 688.663 543.251 686.932 544.595L686.913 544.609L686.893 544.62C685.906 545.13 684.717 544.964 683.965 544.272C683.193 543.562 682.932 542.351 683.688 540.882L683.698 540.862L683.713 540.844C686.644 537.052 690.585 536.036 694.776 535.647C696.86 535.454 699.049 535.413 701.185 535.27C703.2 535.135 705.197 534.906 707.115 534.375L707.498 534.265C711.732 532.894 714.829 529.925 717.922 526.793C721.004 523.674 724.085 520.388 728.259 518.51L728.269 518.506C732.969 516.636 738.037 516.01 743.105 516.947C745.327 517.223 747.542 517.974 749.502 518.779L750.327 519.127L750.341 519.133L750.354 519.14C751.447 519.769 752.447 520.553 753.43 521.324C754.415 522.096 755.384 522.855 756.438 523.462C757.281 523.899 758.42 524.072 759.735 524.053C761.047 524.034 762.508 523.824 763.979 523.517C766.919 522.902 769.863 521.903 771.655 521.285L771.663 521.282C774.151 520.516 775.987 519.528 777.245 518.181C778.498 516.84 779.198 515.119 779.374 512.845L779.375 512.84C779.719 509.276 781.054 505.084 784.375 502.773C783.526 502.608 782.671 502.604 781.788 502.604C779.644 502.912 777.52 503.218 775.397 503.828C772.92 504.745 770.798 505.966 768.674 507.798L768.661 507.81L768.646 507.819C768.293 508.048 767.938 508.297 767.573 508.553C767.21 508.808 766.837 509.071 766.453 509.325C765.684 509.832 764.857 510.308 763.933 510.627C760.211 511.911 756.879 509.977 755.045 507.447L755.042 507.443C754.763 507.042 754.532 506.603 754.314 506.19C754.094 505.771 753.889 505.38 753.654 505.048C753.421 504.719 753.168 504.464 752.863 504.305C752.563 504.149 752.191 504.076 751.698 504.147C750.701 504.29 749.762 504.941 748.922 505.742C748.082 506.543 747.383 507.449 746.832 508.083L746.825 508.09L746.817 508.098C743.921 510.909 740.283 513.109 735.548 513.423H735.547C725.741 514.05 718.142 507.161 712.766 501.289V501.29C706.29 494.464 701.616 486.71 698.022 478.655C695.863 474 694.422 469.342 693.701 464.373C693.344 462.373 692.893 460.193 692.668 458.017C692.442 455.839 692.44 453.64 692.989 451.589C693.544 449.208 694.836 447.543 696.523 446.167C698.202 444.797 700.29 443.701 702.427 442.472L702.434 442.468C704.76 441.233 707.088 439.921 709.419 438.607C711.748 437.293 714.081 435.978 716.414 434.74C721.253 431.958 726.091 429.253 730.928 426.549C735.767 423.844 740.606 421.14 745.443 418.359C750.079 415.591 754.421 412.473 759.838 410.916L759.848 410.914C762.343 410.299 764.892 409.668 767.449 409.979C768.903 409.98 770.263 410.215 771.557 410.446C772.862 410.679 774.094 410.906 775.322 410.906C777.6 410.906 779.801 410.151 782.037 409.225C784.259 408.305 786.528 407.21 788.88 406.586L788.89 406.583L788.898 406.583C793.972 405.645 797.25 406.585 801.894 407.509C803.958 407.803 805.594 407.14 807.034 406.085C808.493 405.018 809.718 403.58 810.994 402.322L811 402.316L811.006 402.311C813.51 400.151 816.052 397.956 819.325 396.702L819.333 396.699L819.341 396.697C821.877 395.916 824.505 395.681 827.093 395.374C829.687 395.065 832.252 394.682 834.723 393.618C836.683 392.695 838.557 391.618 840.44 390.536C842.321 389.455 844.212 388.368 846.194 387.435L846.195 387.434C850.891 385.254 855.593 384.318 860.655 384.629H860.659C861.65 384.707 862.826 384.863 864.067 385.002C865.314 385.142 866.638 385.267 867.947 385.286C870.577 385.324 873.096 384.935 874.815 383.453C875.828 382.579 876.26 381.409 876.479 380.123C876.589 379.479 876.645 378.813 876.695 378.146C876.745 377.483 876.791 376.816 876.882 376.187L876.883 376.182C877.062 375.1 877.242 374.018 877.421 372.936C877.6 371.854 877.779 370.772 877.958 369.69L877.96 369.682L877.961 369.674C879.039 365.026 880.478 360.369 882.641 356.017C884.446 352.28 886.991 348.821 891.369 346.933L891.38 346.929L891.39 346.926C892.563 346.537 893.712 346.226 894.827 345.931C895.944 345.636 897.024 345.357 898.07 345.031C900.16 344.379 902.096 343.542 903.852 342.028L903.862 342.019L904.503 341.518C905.997 340.335 907.495 339.055 909.074 337.804C910.865 336.386 912.728 335.031 914.698 333.997C918.526 331.986 922.763 331.18 927.667 333.419L928.144 333.646L928.151 333.65C928.915 334.061 929.371 334.612 929.55 335.219C929.728 335.824 929.623 336.453 929.329 337.002C928.744 338.095 927.393 338.921 925.855 338.755L925.847 338.754C922.707 338.303 919.993 339.428 917.556 341.109C915.105 342.8 912.987 345.011 910.989 346.734L910.981 346.741C906.644 350.17 902.665 351.727 897.273 353.277C894.124 354.182 892.2 356.139 890.88 358.492C889.553 360.856 888.845 363.604 888.124 366.09L888.122 366.098C886.339 371.635 885.983 376.855 885.264 382.13L885.263 382.14H885.262C884.347 387.345 881.135 390.268 876.9 391.799C872.683 393.324 867.443 393.476 862.416 393.167V393.166C856.023 392.86 852.125 394.079 846.782 396.842L846.783 396.843C842.493 399.31 838.516 401.805 833.455 403.052C830.936 403.673 828.381 403.835 826.042 404.215C823.682 404.599 821.491 405.208 819.568 406.715L819.56 406.723L819.551 406.729C818.142 407.64 816.995 408.78 815.827 409.942C814.665 411.099 813.482 412.277 812.022 413.221L812.021 413.22C808.762 415.406 805.116 416.671 801.094 416.041V416.04C800.006 415.883 798.822 415.57 797.627 415.303C796.421 415.034 795.189 414.807 793.963 414.807C791.87 414.807 789.778 415.706 787.959 416.334C784.041 417.87 780.042 419.753 775.681 419.753C774.233 419.753 772.901 419.636 771.632 419.5C770.359 419.365 769.16 419.211 767.957 419.134C765.564 418.981 763.186 419.135 760.365 420.351C755.361 422.664 750.621 425.362 745.92 428.142C741.22 430.921 736.552 433.784 731.708 436.415C729.201 437.805 726.783 439.196 724.363 440.587C721.944 441.978 719.523 443.37 717.012 444.762L717.011 444.761C714.854 446.001 712.329 447.17 709.924 448.399C707.506 449.634 705.2 450.937 703.432 452.461C702.683 453.107 702.254 454.05 702.053 455.19C701.851 456.33 701.883 457.646 702.038 459.006C702.35 461.732 703.143 464.54 703.51 466.428L703.914 467.935C704.864 471.449 705.879 474.949 707.439 478.448L707.441 478.451C710.9 486.504 716.37 494.272 723.203 500.63L723.869 501.241L723.875 501.247C725.299 502.628 727.34 504.311 729.595 505.455C731.853 506.6 734.289 507.187 736.527 506.445L736.537 506.441C738.608 505.846 740 504.357 741.391 502.732C742.767 501.124 744.148 499.373 746.179 498.417C749.827 496.534 754.942 496.522 758.259 499.058C759.744 500.021 760.485 501.306 761.199 502.538L761.232 502.596V502.663C761.232 502.661 761.234 502.678 761.249 502.722Z" fill="white" stroke="white" stroke-width="0.5"/>
<path d="M724.724 107.563C725.795 107.322 726.929 107.378 727.854 107.813C728.788 108.253 729.493 109.075 729.686 110.319V110.32C730.216 113.826 731.982 116.951 733.561 120.139C735.129 123.309 736.506 126.535 736.14 130.168V130.169C735.958 131.891 735.41 133.552 735.014 135.187C734.614 136.835 734.355 138.492 734.702 140.293L734.771 140.604C735.512 143.71 737.479 146.525 740.383 148.3L740.676 148.475L740.681 148.477C744.208 150.607 748.443 151.216 752.324 150.303C753.3 150.074 754.233 149.786 755.163 149.496C756.091 149.207 757.017 148.914 757.967 148.68C759.753 148.24 761.632 148.004 763.818 148.366L764.26 148.446L764.268 148.448C768.262 149.387 771.525 151.579 774.746 153.739H774.745C775.456 154.198 777.138 155.19 778.857 155.798C779.719 156.103 780.574 156.305 781.312 156.305C782.001 156.305 782.56 156.13 782.943 155.726L783.018 155.642C784.166 154.163 786.328 153.612 788.138 153.932C789.05 154.094 789.899 154.48 790.499 155.107C791.105 155.74 791.442 156.605 791.346 157.679V157.683L791.097 157.657L791.345 157.683C791.304 158.073 791.365 158.337 791.473 158.516C791.579 158.692 791.75 158.816 791.994 158.891C792.501 159.048 793.261 158.977 794.129 158.766C795.844 158.349 797.782 157.438 798.518 157.121C801.38 155.578 804.258 154.027 807.497 152.786C813.972 150.304 820.806 148.754 827.639 148.133L827.648 148.132C833.754 147.823 839.6 148.433 843.625 153.167H843.624C845.789 155.502 847.413 158.07 849.021 160.575C850.636 163.088 852.237 165.54 854.366 167.682H854.365C858.293 171.377 862.572 174.758 867.56 177.525C867.93 177.686 868.52 177.999 869.204 178.361C869.899 178.728 870.702 179.151 871.504 179.535C872.307 179.919 873.1 180.261 873.776 180.468C874.115 180.572 874.416 180.639 874.671 180.664C874.929 180.688 875.115 180.666 875.239 180.613C875.261 180.603 875.318 180.562 875.4 180.44C875.478 180.325 875.561 180.167 875.648 179.972C875.822 179.583 875.998 179.082 876.178 178.558C876.356 178.04 876.538 177.501 876.721 177.053C876.812 176.829 876.905 176.621 877.002 176.448C877.09 176.29 877.19 176.144 877.303 176.039C878.99 174.101 881.415 173.635 883.913 173.792C886.407 173.948 889.03 174.729 891.172 175.344H891.173C897.281 176.894 903.386 179.062 909.131 181.539C912.352 182.773 915.592 184.015 918.475 185.569C919.923 186.35 921.328 187.183 922.777 187.637C924.209 188.086 925.661 188.156 927.199 187.422C929.197 186.327 931.223 185.764 933.086 186.005C934.844 186.232 936.426 187.173 937.68 188.991L937.926 189.366L937.934 189.38L937.94 189.393C938.307 190.184 938.586 191.219 938.893 192.165C939.207 193.133 939.552 194.015 940.053 194.59C940.542 195.153 941.202 195.444 941.984 195.631C942.376 195.725 942.792 195.792 943.228 195.854C943.659 195.916 944.112 195.975 944.563 196.052C946.706 196.36 948.831 196.436 951 196.63C953.159 196.824 955.334 197.136 957.515 197.92C961.884 199.49 964.437 202.636 967.288 205.71L967.62 206.049C968.383 206.819 969.075 207.428 969.855 207.781C970.73 208.176 971.741 208.257 973.126 207.809L973.135 207.806L973.144 207.804C974.367 207.503 975.418 206.976 976.496 206.433C977.564 205.896 978.66 205.343 979.939 205.026C983.812 203.812 988.768 204.343 991.436 207.578L991.687 207.899L991.69 207.905C993.38 210.333 992.799 212.683 991.897 214.978C991.44 216.141 990.914 217.261 990.512 218.431C990.139 219.517 989.888 220.607 989.93 221.718L989.942 221.941V221.942C990.031 223.242 990.231 224.487 990.454 225.711C990.677 226.93 990.925 228.138 991.105 229.341C991.467 231.756 991.56 234.196 990.646 236.876C989.196 241.254 986.298 245.002 982.322 247.811C980.494 249.386 978.309 250.325 975.799 251.253L975.794 251.255C975.332 251.414 974.692 251.572 973.989 251.74C973.281 251.909 972.502 252.091 971.746 252.302C970.989 252.514 970.265 252.751 969.667 253.028C969.067 253.306 968.627 253.609 968.396 253.936C968.245 254.2 968.215 254.415 968.252 254.593C968.29 254.778 968.407 254.962 968.613 255.144C969.034 255.515 969.76 255.822 970.628 256.072C971.926 256.445 973.441 256.666 974.506 256.82L975.396 256.955L975.41 256.958L975.423 256.962C978.636 257.885 981.854 258.501 985.082 259.12C986.224 259.288 987.006 259.871 987.447 260.674C987.885 261.471 987.974 262.46 987.787 263.428C987.23 266.473 985.181 268.307 982.576 269.411C979.982 270.51 976.811 270.897 973.938 271.052C971.959 271.208 970.388 271.362 969.132 271.884C967.898 272.398 966.957 273.275 966.264 274.92L966.263 274.922C965.729 276.15 965.56 277.542 965.616 278.939C967.688 278.953 969.785 279.583 971.542 280.793L972.01 281.096C976.694 284.304 976.679 289.521 976.679 293.99C976.679 295.218 976.769 296.264 977.111 297.187C977.451 298.102 978.044 298.912 979.08 299.658L979.734 300.11C980.374 300.559 980.966 301.009 981.454 301.55C982.115 302.283 982.584 303.179 982.771 304.464L982.771 304.473L982.772 304.481C982.96 306.913 981.546 308.839 979.978 310.617C979.182 311.518 978.356 312.371 977.625 313.266C976.902 314.152 976.297 315.049 975.952 316.009C975.42 317.999 975.131 320.163 974.822 322.369C974.514 324.57 974.188 326.809 973.577 328.916C972.966 331.024 972.067 333.012 970.608 334.709C969.148 336.407 967.137 337.803 964.32 338.744L964.313 338.746C961.228 339.685 957.79 339.839 954.377 339.761C952.67 339.723 950.963 339.626 949.307 339.539C947.648 339.452 946.041 339.375 944.524 339.375C937.348 339.375 930.526 339.065 923.343 338.136V338.135C922.587 338.053 922.04 337.783 921.732 337.359C921.421 336.93 921.394 336.395 921.569 335.876C921.917 334.848 923.073 333.799 924.739 333.32L924.76 333.314L924.78 333.312C935.553 332.073 945.969 332.382 956.713 332.382C959.213 332.382 961.229 332.15 962.836 331.401C964.426 330.66 965.638 329.401 966.514 327.294C967.578 324.235 967.935 320.865 968.294 317.459L968.295 317.446L968.298 317.433C969.011 314.049 969.737 310.266 972.3 307.424L972.311 307.413L972.322 307.403C972.502 307.248 973.309 306.552 974.07 305.895C974.451 305.567 974.82 305.248 975.095 305.011C975.17 304.947 975.238 304.888 975.297 304.837C975.244 304.801 975.184 304.762 975.119 304.718C974.843 304.534 974.472 304.281 974.089 304.008C973.706 303.737 973.309 303.443 972.983 303.177C972.821 303.044 972.673 302.916 972.553 302.799C972.448 302.697 972.354 302.592 972.29 302.493C970.086 300.259 969.725 297.084 969.37 294.331V294.33C969.189 293.379 969.188 292.356 969.188 291.362C969.188 290.352 969.189 289.372 969.015 288.472L969.01 288.449V288.425C969.01 288.236 968.931 287.843 968.766 287.373C968.603 286.91 968.366 286.4 968.069 285.98C967.769 285.555 967.43 285.25 967.071 285.143C966.734 285.043 966.327 285.102 965.838 285.523L965.83 285.53L965.82 285.537C964.681 286.355 963.174 286.596 961.858 286.312C960.542 286.028 959.374 285.206 958.982 283.857L958.981 283.853C957.541 278.574 957.157 272.593 961.183 267.859C963.019 265.644 965.94 264.076 969.207 263.449L969.499 263.394C970.211 263.279 971.124 263.247 972.1 263.226C972.598 263.215 973.115 263.206 973.637 263.192C972.399 262.925 971.161 262.659 969.924 262.392L969.917 262.39C967.426 261.777 964.502 261.148 962.303 259.568L962.293 259.562L962.294 259.561C960.072 257.805 959.319 255.473 959.692 253.219C960.063 250.98 961.541 248.838 963.736 247.415C964.847 246.616 966.135 246.143 967.488 245.755C968.86 245.36 970.258 245.061 971.692 244.597L971.7 244.595C974.894 243.677 977.714 242.152 979.825 239.725L979.828 239.721C982.294 236.987 983.081 234.342 983.125 231.616C983.169 228.865 982.461 226.047 981.919 222.929L981.917 222.919C981.553 220.09 981.918 217.574 983.007 214.758L983.014 214.74L983.024 214.723C983.296 214.254 983.605 213.741 983.858 213.247C984.115 212.747 984.297 212.298 984.336 211.961C984.355 211.794 984.337 211.679 984.299 211.604C984.265 211.538 984.203 211.476 984.073 211.435C983.935 211.392 983.725 211.374 983.417 211.411C983.111 211.447 982.723 211.534 982.239 211.686L982.23 211.689L982.221 211.692C980.895 211.997 979.676 212.436 978.498 212.898C977.326 213.358 976.18 213.846 975.03 214.235C972.718 215.017 970.333 215.416 967.403 214.472L966.963 214.344C964.804 213.667 963.268 212.391 961.909 210.964C961.188 210.206 960.508 209.395 959.819 208.614C959.127 207.829 958.418 207.066 957.625 206.381C954.118 203.357 949.562 203.353 944.866 203.042H944.865C940.552 202.732 936.165 201.799 933.229 198.633L933.224 198.628C932.148 197.391 931.07 195.545 930.681 193.674C930.304 193.91 929.824 194.133 929.338 194.329C928.656 194.603 927.93 194.838 927.387 194.995L927.367 194.999C924.247 195.632 921.234 194.837 918.393 193.631C916.971 193.028 915.586 192.319 914.248 191.629C912.907 190.936 911.615 190.265 910.37 189.728C903.924 186.949 897.48 184.478 890.678 182.317L890.672 182.316V182.315C890.218 182.158 889.719 181.964 889.205 181.761C888.689 181.558 888.155 181.347 887.621 181.155C886.548 180.769 885.508 180.474 884.659 180.474C884.214 180.474 883.921 180.494 883.719 180.537C883.525 180.578 883.429 180.636 883.36 180.707C883.281 180.788 883.218 180.906 883.121 181.113C883.029 181.308 882.915 181.564 882.735 181.876L882.465 182.464C881.816 183.873 880.995 185.477 879.022 186.328C876.443 187.44 873.691 187.275 871.105 186.571C868.521 185.867 866.08 184.618 864.105 183.535V183.534C854.034 178.26 845.757 170.813 839.997 161.81L839.991 161.801C839.629 161.178 839.29 160.513 838.945 159.86C838.599 159.204 838.244 158.556 837.848 157.948C837.055 156.733 836.102 155.695 834.731 155.104L834.72 155.099V155.097C833.519 154.506 832.044 154.352 830.49 154.39C828.936 154.429 827.342 154.658 825.896 154.814L825.895 154.813C818.756 155.737 811.978 157.893 805.916 161.276C801.638 163.735 796.531 166.89 790.686 165.63C788.564 165.172 786.527 164.123 785.023 162.658C783.305 163.12 781.5 163.172 779.682 162.928C775.6 162.381 771.446 160.352 768.029 158.182C765.852 156.93 763.776 155.439 761 155.433C759.785 155.585 758.563 156.036 757.308 156.5C756.059 156.961 754.777 157.435 753.488 157.594L753.489 157.595C748.797 158.218 744.096 157.908 739.75 156.346V156.345C730.7 153.222 724.876 145.092 725.604 136.614L725.605 136.604L725.607 136.594C725.789 135.499 726.06 134.445 726.329 133.422C726.599 132.395 726.865 131.4 727.042 130.408C727.395 128.431 727.39 126.481 726.347 124.38L726.342 124.371V124.37C725.449 122.369 724.297 120.462 723.257 118.472C722.223 116.495 721.312 114.457 720.947 112.254L720.946 112.251C720.559 109.744 722.6 108.041 724.724 107.563Z" fill="white" stroke="white" stroke-width="0.5"/>
<path d="M400.6 69.8574C400.6 70.1349 400.683 70.652 400.815 71.1455C400.881 71.3895 400.955 71.619 401.033 71.8027C401.086 71.9278 401.136 72.0161 401.175 72.0732C401.598 72.0376 402.065 71.7998 402.562 71.3975C403.096 70.9647 403.632 70.3721 404.144 69.7393C404.655 69.107 405.131 68.4466 405.554 67.8779C405.968 67.321 406.344 66.8311 406.639 66.5771C409.184 64.3824 412.502 63.0885 415.844 64.3643C416.955 64.6861 417.886 65.3281 418.761 65.8564C419.646 66.3911 420.486 66.8179 421.478 66.8242C422.332 66.6726 423.371 66.2285 424.441 65.7285C425.499 65.2344 426.588 64.6867 427.498 64.3711L427.99 64.1719C438.337 60.1277 448.267 64.5029 454.317 72.1758L454.321 72.1816C457.367 76.2673 459.461 80.8987 460.603 85.5645L460.818 86.498L460.82 86.5107C461.009 87.6505 461.197 88.7891 461.386 89.8818C461.397 89.0649 461.399 88.2574 461.399 87.4785C461.399 82.2246 461.399 76.9606 461.758 71.6953L461.759 71.6924C463.195 54.0392 468.945 35.399 485.524 23.8984H485.525C487.368 22.627 489.256 22.2846 491.148 23.2588H491.149C493.409 24.3081 495.946 24.2412 498.521 23.7051C501.102 23.168 503.675 22.1718 506.021 21.3936L506.026 21.3916C511.029 19.8508 516.449 17.9805 521.873 17.9805H521.887L522.427 18.0166C525.105 18.2261 527.475 18.8967 529.756 19.7344C530.971 20.1809 532.164 20.6756 533.362 21.1729C534.559 21.6696 535.762 22.169 537.008 22.6299C541.597 24.152 546.547 23.5455 550.798 21.4072C552.899 20.2728 554.44 18.6257 555.765 16.7754C557.101 14.9088 558.188 12.8853 559.438 10.9463C560.675 9.0248 562.052 7.22389 563.923 5.90625C565.8 4.5846 568.159 3.75982 571.343 3.75977C574.073 3.75977 576.614 4.46662 579.127 5.2793C581.649 6.09505 584.134 7.01285 586.8 7.47266L586.805 7.47363C589.965 8.07936 592.961 7.40137 595.899 6.28809C597.369 5.73124 598.818 5.06763 600.265 4.40527C601.708 3.7443 603.15 3.08357 604.593 2.53906C608.567 0.981515 613.536 0.123445 618.062 0.630859C620.651 0.921086 623.108 1.66112 625.149 2.98145C626.933 1.80506 629.033 1.0118 631.252 0.595703C635.424 -0.186473 640.051 0.358982 643.866 2.23926H643.865C648.766 4.58761 651.845 8.34312 654.233 12.4629C655.427 14.5216 656.45 16.6757 657.441 18.791C658.31 20.6447 659.153 22.4669 660.067 24.1816L660.464 24.9102L660.465 24.9121C662.788 29.2047 666.044 31.8936 670.27 34.498L671.128 35.0186L671.129 35.0195C674.622 37.1283 677.505 39.859 678.018 43.792L678.06 44.1768L678.061 44.1895C678.244 49.2515 675.484 52.8784 671.543 55.5352C668.951 57.2822 665.834 58.6173 662.676 59.6807C666.471 67.7734 667.82 76.6638 666.457 85.4395C672.533 84.5253 678.898 84.1856 684.696 86.0039C685.705 86.3204 686.664 86.7929 687.593 87.3027C688.535 87.8198 689.419 88.3575 690.34 88.8418C692.162 89.8 693.977 90.4612 696.04 90.0166C698 89.5554 699.774 88.9426 701.577 88.3984C703.374 87.8562 705.185 87.3865 707.182 87.2295C710.447 86.9166 714.11 87.5384 716.689 89.7627C717.806 90.7255 718.547 92.0059 718.917 93.2832C719.014 93.6162 719.06 93.9835 719.094 94.3486C719.128 94.723 719.15 95.084 719.194 95.4473C719.283 96.1718 719.454 96.7832 719.916 97.1816C720.432 97.6265 721.119 97.9975 721.852 98.4316C722.57 98.8575 723.318 99.338 723.885 99.9893C724.909 101.167 725.622 102.356 726.013 103.554L726.087 103.794L726.089 103.801L726.153 104.069C726.78 106.829 726.036 109.29 724.629 111.718L724.624 111.727L724.618 111.734C723.452 113.411 721.412 113.483 720.023 112.615C719.326 112.179 718.776 111.5 718.574 110.65C718.371 109.797 718.525 108.802 719.182 107.75C719.698 106.857 719.829 106.165 719.735 105.61C719.642 105.055 719.316 104.591 718.827 104.169C718.335 103.745 717.697 103.379 717.009 103.018C716.33 102.661 715.598 102.304 714.961 101.912L714.954 101.907L714.946 101.902C712.745 100.32 711.633 98.4099 711.263 95.8799C710.91 94.6697 710.489 93.9885 709.826 93.6523C709.146 93.3075 708.147 93.2885 706.541 93.5957L706.542 93.5967C705.125 93.9021 703.794 94.3608 702.448 94.8252C701.106 95.2882 699.748 95.7575 698.297 96.0703L698.284 96.0732L698.271 96.0742C695.386 96.3851 692.479 96.3881 689.563 95.4453L689.554 95.4424C688.281 94.9719 687.101 94.3446 685.938 93.7275C684.774 93.1095 683.626 92.5005 682.394 92.0439C676.016 90.2138 669.279 91.7377 662.811 92.9775C659.791 93.9377 656.722 91.3388 657.494 88.3438C659.988 78.2016 658.919 68.0672 653.576 58.5439C653.001 57.5506 652.905 56.3109 653.337 55.2344C653.772 54.1501 654.737 53.245 656.249 52.9189C658.226 52.454 660.361 51.994 662.363 51.3418C664.367 50.6891 666.213 49.8515 667.61 48.6465C668.834 47.5913 669.689 46.2491 669.901 44.9316C670.111 43.6315 669.699 42.3326 668.34 41.3066L668.333 41.3018L668.327 41.2969C667.274 40.3885 665.951 39.6267 664.56 38.8525C663.176 38.083 661.726 37.3006 660.455 36.3613L660.447 36.3564L660.44 36.3496C657.919 34.1752 655.748 31.6831 654.296 28.8711C652.493 25.9175 651.227 22.6435 649.802 19.5322C648.371 16.4088 646.773 13.4293 644.297 10.9893V10.9883C642.538 9.32107 639.626 7.72455 636.768 7.23145C633.912 6.73892 631.173 7.35175 629.633 10.0088C628.855 11.3503 627.316 11.9122 625.825 11.8721C624.337 11.832 622.813 11.191 622.038 10.0215L622.033 10.0146V10.0137C620.501 7.51934 617.594 7.04303 614.393 7.46484C611.205 7.88493 607.83 9.18511 605.498 10.1133C599.252 13.1053 592.938 15.8431 585.626 14.5898L584.915 14.4561C583.37 14.1424 581.694 13.5368 580.012 12.9199C578.321 12.3001 576.623 11.6684 575.005 11.2861C573.386 10.9037 571.878 10.7789 570.565 11.1484C569.266 11.5144 568.13 12.3729 567.263 14.0186L567.261 14.0225C564.404 19.2575 562.58 23.6587 556.773 27.1016L556.767 27.1055C551.709 29.909 545.564 31.4688 539.413 30.8447V30.8438C535.959 30.5295 532.87 29.0408 529.84 27.7344C526.793 26.4206 523.798 25.287 520.462 25.5898L520.461 25.5889C517.53 25.8957 514.726 26.6438 511.973 27.5156C509.231 28.3837 506.506 29.3869 503.796 30.1787C499.242 31.5093 494.627 32.2776 489.629 30.9385C480.498 37.4872 475.724 46.6261 473.229 56.5479C470.593 67.0244 470.503 78.3555 470.503 88.4062C470.503 90.8756 470.415 94.9405 469.141 98.1211C468.501 99.7156 467.554 101.112 466.147 101.966C464.736 102.823 462.896 103.114 460.518 102.562V102.561C458.409 102.086 456.863 101.134 455.707 99.8789C454.554 98.6264 453.801 97.0829 453.257 95.4404C452.713 93.7992 452.374 92.0446 452.061 90.3652C451.746 88.6783 451.458 87.0727 451.016 85.7002L451.013 85.6934V85.6924C449.585 80.7688 447.1 75.5868 442.16 72.5439L442.153 72.5391C439.869 71.024 437.773 70.5749 435.632 70.7256C433.477 70.8774 431.269 71.6367 428.756 72.5654L428.754 72.5664C424.471 74.1054 419.698 75.7048 415.281 73.166L415.261 73.1543L415.242 73.1387C414.899 72.8423 414.554 72.6184 414.194 72.3857C413.91 72.202 413.617 72.0112 413.321 71.7793C412.994 72.0377 412.701 72.3492 412.415 72.6855C411.944 73.2394 411.473 73.883 410.922 74.3623L410.471 74.7979C408.171 76.9533 405.189 78.7841 402.188 79.3389C400.583 79.6354 398.967 79.5682 397.448 78.9834C395.928 78.398 394.522 77.3005 393.332 75.5635L393.322 75.5479C392.4 73.9566 392.124 72.0477 391.77 70.2539C391.412 68.4414 390.974 66.7295 389.775 65.3955C388.405 64.0693 386.421 63.5394 384.402 63.5771C382.382 63.615 380.367 64.2217 378.977 65.1211L378.969 65.126C376.688 66.4876 375.28 68.3042 374.081 70.2959C373.479 71.2952 372.936 72.3296 372.355 73.3789C371.777 74.4246 371.167 75.4785 370.441 76.4951L370.433 76.5068L370.423 76.5166C367.864 79.3537 363.435 80.9742 359.713 78.7275C357.832 77.592 357.272 75.9617 356.865 74.3232C356.455 72.6706 356.198 71.0489 354.996 69.7158H354.995C354.154 68.8495 352.79 68.3267 351.359 68.252C349.927 68.1771 348.472 68.5539 347.458 69.4287L347.45 69.4355C345.185 71.2261 342.45 70.6485 340.811 69.1943C339.99 68.4666 339.424 67.5032 339.333 66.4795C339.247 65.5097 339.59 64.5153 340.491 63.6553L340.679 63.4854C343.973 60.4902 348.711 59.4778 353.155 60.1035C357.461 60.7098 361.537 62.8608 363.787 66.2998L363.999 66.6367L364.001 66.6406C364.181 66.9519 364.383 67.3397 364.58 67.7705C364.834 67.3623 365.107 66.9659 365.38 66.6133C368.171 62.7034 371.656 59.059 376.82 57.1279L377.325 56.9463C381.319 55.5376 385.943 55.4602 389.98 56.6729C393.892 57.8478 397.277 60.2424 398.985 63.8408L399.145 64.1934L399.149 64.2031H399.148C399.875 66.0819 400.237 67.9586 400.595 69.8105L400.6 69.834V69.8574Z" fill="white" stroke="white" stroke-width="0.5"/>
<path d="M149.77 33.4369C163.041 33.1276 176.669 33.4376 189.937 34.056H189.938C217.198 35.6026 244.1 39.6235 270.286 46.4291L270.293 46.431C275.644 47.9692 280.745 49.2212 284.388 53.6117L284.657 53.9135C285.277 54.633 285.842 55.4556 286.42 56.2201C287.089 57.1047 287.786 57.9275 288.647 58.5219C290.356 59.7004 292.778 59.7165 295.286 59.4076L295.288 59.4066C300.671 58.7877 305.778 58.7745 310.162 62.2357C310.561 62.511 310.924 62.8032 311.255 63.1078C311.917 62.087 312.359 60.9232 312.637 59.6078C312.847 57.8939 314.528 57.0136 316.22 56.8558C317.082 56.7755 317.982 56.8753 318.765 57.1595C319.544 57.4426 320.226 57.9159 320.623 58.5961L320.752 58.7933C321.059 59.2327 321.404 59.5341 321.774 59.7299C322.198 59.9537 322.671 60.0471 323.188 60.0336C324.232 60.0061 325.433 59.5457 326.704 58.892C327.973 58.2391 329.269 57.4169 330.518 56.6859C331.752 55.9631 332.948 55.325 333.976 55.0834L333.997 55.0795C336.192 54.764 338.41 55.0766 340.266 56.3558C341.389 57.0066 342.131 57.9761 342.853 59.2211C343.04 59.5441 343.226 59.9451 343.365 60.3461C343.486 60.6921 343.576 61.053 343.598 61.3715C344.147 61.2742 344.734 61.2665 345.311 61.3392C346.264 61.4595 347.213 61.8012 347.953 62.3422C348.694 62.8843 349.238 63.638 349.337 64.5756L349.34 64.6019L349.337 64.6273C349.149 66.4062 348.209 67.7908 346.842 68.6039C345.478 69.415 343.705 69.6495 341.856 69.1713L341.847 69.1693L341.838 69.1664C340.011 68.5361 338.537 67.5854 337.429 66.3109L337.413 66.2933L337.401 66.2728C337.209 65.941 337.022 65.4563 336.844 64.9564C336.662 64.4459 336.486 63.9155 336.309 63.4554V63.4545C336.151 63.1112 336.072 62.8406 336.041 62.6293C335.996 62.6449 335.947 62.6628 335.894 62.6781L335.881 62.682L335.867 62.684C335.041 62.8266 334.191 63.4048 333.29 64.1039C332.411 64.7861 331.485 65.5824 330.562 66.0599C328.766 66.9897 326.569 67.9427 324.354 67.9427C322.525 67.9427 320.801 67.6595 319.245 67.1117C317.474 69.9547 314.838 72.3126 311.188 73.7953L311.188 73.7963C309.308 74.6068 307.239 74.2041 305.915 73.1439C305.251 72.6121 304.766 71.9072 304.595 71.097C304.423 70.2839 304.573 69.3879 305.141 68.4896C305.186 68.4086 305.181 68.3551 305.152 68.3002C305.113 68.2248 305.018 68.1292 304.844 68.0228C304.497 67.8119 303.946 67.6255 303.323 67.472C302.083 67.1664 300.67 67.0161 300.336 67.016C298.915 67.016 297.497 67.1689 296.054 67.2855C294.62 67.4015 293.168 67.4799 291.712 67.3236C286.609 67.0078 282.966 64.4883 280.069 61.0531L280.062 61.0453L280.063 61.0443C278.606 59.1587 277.571 57.3669 275.477 56.1625C274.436 55.564 273.122 55.1834 271.737 54.8754C271.047 54.7217 270.345 54.5871 269.654 54.4515C268.966 54.3163 268.288 54.1799 267.654 54.0238H267.652C261.567 52.4803 255.122 51.245 248.668 50.0082H248.667C225.02 45.3735 201.016 42.5929 177.013 41.975H177.012C166.621 41.666 155.877 41.6659 145.137 42.5922C141.201 43.0552 136.922 43.749 133.004 45.016C129.082 46.2843 125.543 48.1211 123.075 50.8578L123.071 50.8617C121.925 52.0788 120.994 53.4711 120.118 54.9291C119.249 56.3757 118.417 57.9147 117.499 59.3636C115.648 62.2839 113.369 64.9654 109.351 66.3832L109.35 66.3822C104.947 67.9632 100.916 66.374 96.9883 64.8344C95.0508 64.0749 93.8104 64.1815 92.9707 64.8021C92.1096 65.4386 91.5865 66.6696 91.2295 68.3627L91.2285 68.3676C90.3451 72.1769 90.7838 76.4608 91.8545 80.6927C92.7908 84.3937 94.2067 88.04 95.625 91.2719L96.2314 92.6302L96.2334 92.6351C99.7993 100.938 105.866 108.328 113.016 114.494C114.181 115.499 114.458 117.078 114.032 118.466C113.605 119.858 112.462 121.092 110.748 121.42C110.379 121.491 110.129 121.619 109.963 121.776C109.798 121.931 109.698 122.129 109.653 122.37C109.56 122.868 109.706 123.527 109.993 124.251C110.564 125.69 111.607 127.189 111.987 127.841L112.321 128.37C113.969 131.033 115.269 133.986 115.61 137.224H115.609C116.334 143.171 114.517 148.834 109.051 152.605C106.863 154.176 104.312 155.116 101.407 155.429L101.395 155.431H101.381C100.295 155.431 99.0996 155.274 98.0029 155.199C96.8855 155.122 95.8544 155.126 95.0098 155.417L94.9912 155.424L94.9707 155.427C94.1552 155.568 93.3954 156.138 92.6875 156.863C91.9741 157.593 91.3745 158.412 90.8154 159.055L90.8115 159.06L90.627 158.891L90.8105 159.06C85.4321 164.935 79.695 170.809 73.9619 176.68C68.5816 182.557 62.8435 188.435 57.1084 194.308L57.1045 194.312C51.718 199.576 46.0028 204.812 41.7168 210.664C36.9273 217.243 36.2143 224.279 37.5488 231.261C38.8849 238.251 42.2711 245.175 45.6748 251.509L45.7764 251.693C46.778 253.617 46.3797 256.147 44.124 257.12C40.4635 258.698 37.5266 258.376 33.9053 257.126L33.8965 257.122L33.8887 257.12C33.6986 257.038 33.3948 256.876 33.0488 256.696C32.6965 256.512 32.2864 256.303 31.8672 256.113C31.447 255.922 31.024 255.754 30.6455 255.653C30.2589 255.549 29.9559 255.527 29.7549 255.584L29.7461 255.586L29.7383 255.588C29.4624 255.648 29.1713 255.865 28.8701 256.232C28.5731 256.593 28.2912 257.068 28.0254 257.583C27.7601 258.098 27.5167 258.643 27.292 259.142C27.0699 259.635 26.8628 260.093 26.6758 260.415C21.6652 269.675 17.0051 278.637 11.9912 287.595L11.7646 288.077C11.5211 288.564 11.2309 289.068 10.9434 289.575C10.5564 290.256 10.1711 290.949 9.88672 291.647C9.32006 293.038 9.16998 294.399 10.167 295.689C10.8549 296.579 11.8971 297.332 13.0596 298.065C14.2068 298.788 15.4847 299.498 16.5674 300.276L16.5693 300.277C18.899 301.977 21.1394 303.6 23.3799 305.223C25.6193 306.845 27.8591 308.468 30.1885 310.167L30.5938 310.463C31.6195 311.23 33.1821 312.511 35.0137 313.927C37.117 315.553 39.5948 317.371 42.0908 318.851C44.5923 320.334 47.0881 321.462 49.2314 321.731C50.2997 321.865 51.2676 321.783 52.1016 321.438C52.9315 321.094 53.647 320.482 54.2041 319.521L54.208 319.513C55.5569 317.353 58.1417 317.302 60.002 318.265C60.9376 318.749 61.7253 319.503 62.1113 320.418C62.5017 321.344 62.4716 322.415 61.8018 323.488L61.7939 323.501C58.8635 327.608 53.7498 329.483 48.3115 329.17V329.169C42.1322 328.855 37.0537 325.095 32.7666 322.014L30.4805 320.376C28.1939 318.727 25.9071 317.045 23.6221 315.365C20.5748 313.123 17.5293 310.883 14.4844 308.72L14.4824 308.719C13.3243 307.874 11.9426 306.989 10.4941 306.045C9.04884 305.103 7.53987 304.103 6.14258 303.035C3.36046 300.906 0.960178 298.461 0.40332 295.58C-0.150879 292.713 0.867894 289.712 2.30762 286.879C3.02942 285.459 3.86314 284.07 4.66992 282.751C5.47874 281.429 6.25854 280.181 6.88184 279.029C8.49582 275.781 10.1994 272.612 11.9004 269.447C13.6035 266.277 15.304 263.111 16.915 259.87C17.4506 258.792 17.9602 257.587 18.5303 256.341C19.0974 255.102 19.719 253.833 20.4678 252.659C21.967 250.308 23.9885 248.316 27.126 247.679L27.1357 247.677L27.1455 247.676C28.4286 247.518 29.6167 247.598 30.7861 247.714C31.9612 247.831 33.1074 247.984 34.3457 247.984H34.376C29.4749 237.905 25.8162 227.125 28.7256 216.33C30.1738 210.554 33.7 205.418 37.877 200.654C42.045 195.9 46.9111 191.466 51.0127 187.16L51.0156 187.157C56.0335 182.057 61.0515 176.879 66.0703 171.701C71.0888 166.523 76.1085 161.344 81.1279 156.243L81.1289 156.242C83.2562 154.101 85.2591 151.673 87.6035 149.807C89.9626 147.929 92.7004 146.588 96.3486 146.584C97.1609 146.507 97.9281 146.487 98.6504 146.463C99.3791 146.439 100.061 146.41 100.718 146.316C102.019 146.129 103.222 145.684 104.432 144.492C106.5 142.409 106.86 139.42 106.157 136.695L106.154 136.682C105.627 134.106 104.133 131.831 102.733 129.455C101.344 127.098 100.056 124.65 100.056 121.793C100.056 119.805 100.82 117.824 102.141 116.196C94.3086 108.79 88.4014 100.078 84.6582 90.6625L84.6562 90.6566C83.0414 86.324 81.3311 81.1243 80.6553 75.9174C79.9796 70.7118 80.3339 65.4703 82.8818 61.0756C84.7151 57.9135 88.3743 55.3927 92.7598 55.0775H92.7773C95.326 55.0775 97.8692 55.7044 100.046 56.6429L100.062 56.6508C100.979 57.1252 101.843 57.6488 102.759 57.9496C103.658 58.2448 104.579 58.3138 105.584 57.8802L105.593 57.8763C107.11 57.2948 108.238 55.676 109.226 53.8187C109.716 52.8958 110.16 51.9391 110.601 51.0433C111.037 50.1549 111.471 49.3261 111.933 48.6888C114.106 45.2572 117.36 42.1416 121.335 39.9603C129.632 35.2945 140.076 33.7465 149.768 33.4369H149.77Z" fill="white" stroke="white" stroke-width="0.5"/>
<path d="M61.2295 317.849C61.3915 317.849 61.5404 317.844 61.6875 317.907C61.8213 317.965 61.9451 318.077 62.1094 318.219C62.2646 318.353 62.4025 318.407 62.5645 318.5C62.6374 318.542 62.7266 318.599 62.7959 318.685C62.849 318.75 62.8833 318.826 62.9004 318.909C63.0668 319.073 63.1662 319.242 63.2178 319.42C63.2619 319.572 63.2679 319.722 63.2695 319.852C63.4745 320.1 63.4385 320.419 63.3447 320.662C63.2377 320.939 63.0315 321.204 62.8271 321.38C62.6735 321.512 62.6129 321.625 62.5029 321.768C62.4515 321.834 62.3845 321.912 62.2891 321.97C62.2152 322.014 62.1337 322.04 62.0449 322.051C61.9109 322.166 61.8035 322.259 61.6875 322.309C61.5404 322.372 61.3915 322.367 61.2295 322.367H58.7207C58.5308 322.367 58.3534 322.305 58.1934 322.22C58.0979 322.27 58.0069 322.311 57.9229 322.347C57.7426 322.424 57.5961 322.49 57.4492 322.616L57.3789 322.677H56.4766L56.4062 322.616C56.1651 322.408 56.0601 322.111 56.0107 321.856C55.9609 321.597 55.9609 321.343 55.9609 321.19C55.9609 321.041 55.9595 320.851 56.0156 320.657C56.0746 320.454 56.1923 320.258 56.4062 320.073L56.8193 319.717C56.845 319.695 56.8686 319.674 56.8906 319.655C57.0441 319.318 57.2611 319.027 57.4814 318.837L57.5518 318.776H57.6445C57.7276 318.776 57.7578 318.753 57.8398 318.683C57.9093 318.623 58.006 318.538 58.1562 318.495C58.1731 318.456 58.194 318.419 58.2197 318.386C58.2864 318.3 58.3711 318.248 58.4424 318.217C58.5131 318.186 58.5804 318.172 58.6279 318.165C59.0486 317.842 59.4952 317.849 60.1543 317.849H61.2295Z" fill="white" stroke="white" stroke-width="0.5"/>
<path d="M62.1436 316.924C64.5214 317.003 67.0656 317.868 69.2246 318.799C69.9516 319.113 70.6995 319.504 71.459 319.899C72.2215 320.296 72.998 320.697 73.7949 321.041C75.3846 321.726 77.029 322.168 78.7461 321.877C79.9668 321.576 81.103 320.974 82.2783 320.389C83.4388 319.812 84.6355 319.253 85.9336 319.091C88.8636 318.618 91.4219 319.252 93.8633 320.227C95.0819 320.714 96.2778 321.287 97.4736 321.851C98.6687 322.415 99.8662 322.969 101.105 323.427C104.269 324.335 106.346 323.73 109.609 323.418H109.612C111.424 323.261 112.884 323.339 114.26 323.655C115.462 323.931 116.59 324.389 117.821 325.02L118.355 325.301L118.361 325.304C119.942 326.213 121.154 326.507 122.404 326.507C123.675 326.507 124.985 326.206 126.798 325.893L126.81 325.891L127.762 325.764C128.084 325.719 128.411 325.67 128.742 325.622C129.403 325.525 130.079 325.428 130.755 325.35C132.106 325.195 133.474 325.115 134.758 325.273C139.549 325.863 142.732 328.395 145.198 331.538L145.683 332.173L145.687 332.179C146.231 332.962 146.753 333.883 147.299 334.809C147.847 335.741 148.423 336.685 149.085 337.541C150.406 339.249 152.049 340.581 154.458 340.729H154.464C158.123 341.03 160.92 339.082 163.707 337.066C166.462 335.073 169.227 332.995 172.738 333.309C173.864 333.312 174.912 333.717 175.59 334.385C176.279 335.064 176.583 336.018 176.185 337.049C175.071 339.929 172.463 341.212 169.988 342.737C167.49 344.276 164.593 346.15 161.33 347.089C156.254 348.962 150.07 348.658 145.687 345.194V345.195C143.864 343.78 142.591 342.132 141.421 340.424C140.246 338.71 139.185 336.954 137.762 335.266L137.761 335.264C136.041 333.188 133.898 332.807 131.524 333.035C130.332 333.149 129.092 333.416 127.824 333.697C126.562 333.976 125.272 334.269 124.003 334.425C121.452 334.74 118.902 334.424 116.357 333.484L116.346 333.48V333.479C115.796 333.242 115.317 332.987 114.872 332.739C114.424 332.489 114.019 332.253 113.6 332.044C112.773 331.631 111.915 331.336 110.709 331.336C110.023 331.336 109.332 331.484 108.61 331.639C107.902 331.792 107.163 331.951 106.419 331.953L106.42 331.954C103.32 332.111 100.771 331.323 98.292 330.312C95.8028 329.297 93.4173 328.076 90.5693 327.308L90.5576 327.305V327.304C87.7961 326.411 86.119 327.589 83.5518 328.538C80.649 329.787 77.7277 330.107 74.8008 329.165C71.8756 328.532 69.3252 326.642 67.1875 325.106L67.1826 325.102C64.3545 322.968 61.1802 321.753 57.2959 321.753C56.6802 321.753 56.2332 321.482 56.0039 321.087C55.7799 320.7 55.78 320.218 56.0039 319.832L56.0078 319.825L56.0117 319.819C57.5072 317.562 59.7547 316.845 62.1436 316.924Z" fill="white" stroke="white" stroke-width="0.5"/>
<path d="M288.465 290.339C294.947 289.407 301.429 289.717 307.909 291.269C321.218 294.06 334.16 301.501 343.152 310.182C343.737 310.686 344.02 311.29 344.046 311.897C344.071 312.499 343.842 313.081 343.449 313.547C342.662 314.48 341.2 314.973 339.664 314.311L339.655 314.307C336.419 312.756 333.253 310.955 330.082 309.114C326.909 307.272 323.733 305.392 320.468 303.676C313.939 300.244 307.075 297.479 299.24 297.019H299.233C292.115 296.405 285.72 298.552 278.877 300.105C275.285 301.033 272.047 301.655 268.447 301.965L268.446 301.964C266.987 302.121 265.503 302.195 264.022 302.389C262.554 302.581 261.152 302.885 259.934 303.485C258.731 304.078 257.863 305.045 256.965 306.091C256.075 307.127 255.153 308.241 253.859 309.038L253.854 309.043L253.853 309.042C251.662 310.302 249.111 310.929 246.562 310.93C245.837 311.006 245.092 311.008 244.36 310.998C243.616 310.988 242.888 310.97 242.182 311.008C240.773 311.084 239.503 311.385 238.491 312.402L238.478 312.416C237.618 313.157 237.008 314.127 236.477 315.197C236.211 315.732 235.967 316.287 235.72 316.849C235.474 317.408 235.225 317.974 234.953 318.521L234.948 318.531L234.729 318.409L234.947 318.531C230.224 326.991 219.714 330.402 209.314 331.948L209.315 331.949C206.257 332.415 203.291 332.648 200.332 332.841C197.37 333.034 194.42 333.189 191.379 333.497H191.376C184.594 334.113 179.239 335.651 173.155 337.812L173.14 337.817L173.124 337.82C172.721 337.907 172.257 337.883 171.818 337.786C171.379 337.689 170.945 337.513 170.601 337.28C170.263 337.051 169.977 336.742 169.902 336.363C169.825 335.969 169.991 335.581 170.382 335.237C174.924 330.074 181.629 328.056 188.72 327.05C192.27 326.546 195.931 326.294 199.479 326.033C203.029 325.773 206.465 325.503 209.586 324.965C215.325 323.727 220.988 322.193 224.872 318.234L224.879 318.227C226.816 316.405 227.961 314.128 229.224 311.872C230.48 309.628 231.848 307.416 234.232 305.835C236.433 304.256 238.993 303.63 241.892 303.629C242.879 303.552 243.757 303.533 244.551 303.504C245.351 303.475 246.065 303.436 246.742 303.323C248.081 303.1 249.289 302.583 250.687 301.227C252.848 299.053 254.843 297.486 257.165 296.426C259.488 295.365 262.121 294.82 265.547 294.664H265.549C269.646 294.51 273.391 293.742 277.105 292.855C280.815 291.968 284.506 290.959 288.462 290.339H288.465Z" fill="white" stroke="white" stroke-width="0.5"/>
</svg>
