<svg xmlns="http://www.w3.org/2000/svg" width="375" height="432" fill="none" viewBox="0 0 375 432"><path fill="#fff" stroke="#fff" stroke-width=".3" d="M99.08 266.86q0 .71-.06 1.36t0 1.24c.05.74.28 1.42.95 2.05l.14.12v.01l.18.17c.9.8 2.15 1.34 3.47 1.8 1.4.5 2.9.9 4.13 1.5 2.3.87 4.36 2.38 5.73 4.3l.27.4c.55.96.76 1.98.93 3s.3 2.05.7 3.08c.4.9.98 1.64 1.65 2.34q.5.5 1.04 1l1.05 1.03c2.7 2.33 4.87 4.9 6.5 7.95 4.05 7.46 6.48 16.09 9.17 23.99l.2.57c.44 1.36.74 2.8.59 4.12a4.8 4.8 0 0 1-2.75 3.87c-2.74 1.42-6.3 1.18-9.01.24q-.92-.36-1.8-.78-.87-.4-1.7-.7a4.3 4.3 0 0 0-3.4.08h-.02c-.65.23-1.18.57-1.72.9a5 5 0 0 1-1.8.74c-1.4.48-3.05 0-4.4-.7l-.12-.06-.36-.25q-.26-.2-.5-.42-.26-.22-.5-.4-.24-.2-.41-.27c-.5-.22-.92-.17-1.37 0q-.34.13-.7.32-.37.19-.78.38c-3.15 1.18-6.7.77-9.37-.74a8.4 8.4 0 0 1-3.27-3.2c-4.17 2.92-6.12 7.65-5.07 12.38.8 3 1.9 5.86-.01 8.95-1.03 1.77-2.68 3.01-4.45 4.2l-1.8 1.2c-3.06 2.07-4.53 5-5.67 8.13q-.43 1.18-.82 2.37t-.81 2.39a23 23 0 0 1-2.1 4.51 15.7 15.7 0 0 1-8.2 6.79c.94.31 1.92.6 2.81.88.96.3 1.81.61 2.37.97a20 20 0 0 1 2.24 1.37c.7.47 1.36.94 2.04 1.3a5.8 5.8 0 0 0 4.78.58c3.07-.8 5.47-2.65 7.94-4.52 2.45-1.86 4.97-3.74 8.24-4.56l.49-.11a21.3 21.3 0 0 1 14.58 2.16c4.41 2.4 7.75 6.28 8.57 10.87.21.8.04 1.44-.37 1.9s-1.03.72-1.68.78c-1.3.12-2.8-.55-3.1-2.16-.4-2.52-1.98-4.7-4.18-6.3-2.2-1.62-5.01-2.66-7.81-2.89-3.46-.34-6.13.8-8.57 2.42-1.23.81-2.4 1.74-3.58 2.66a36 36 0 0 1-3.67 2.58q-4.5 2.81-8.91 2.79a14.5 14.5 0 0 1-8.51-3.03c-1.2-.8-2.68-1.42-4.25-2.01-1.55-.59-3.19-1.14-4.66-1.81a11 11 0 0 1-3.75-2.55 5.8 5.8 0 0 1-1.43-4.23c0-1.91 1.88-3.32 4.02-2.97l.2.04h.01c1.99.46 3.59.18 4.89-.55a9 9 0 0 0 3.17-3.34c1.68-2.83 2.54-6.47 3.36-8.82 1.08-2.8 2.17-5.38 4.34-7.73l.37-.35c.87-.79 1.82-1.45 2.8-2.09 1.12-.73 2.25-1.42 3.33-2.23a4 4 0 0 0 1.36-1.8c.23-.63.26-1.3.2-2-.07-.7-.24-1.42-.4-2.17a18 18 0 0 1-.41-2.27l-.05-.49a14 14 0 0 1 1.14-7.04c1.9-4.93 6.26-8.68 11.67-10.78a4.2 4.2 0 0 1 2.98 0c.47.18.9.45 1.18.83q.45.57.36 1.42c-.13.9.07 1.73.54 2.36.45.6 1.16 1.03 2.1 1.17l.2.03c.76.1 1.6-.17 2.48-.55.86-.36 1.75-.84 2.57-1.08a5.7 5.7 0 0 1 4.44.25q.6.28 1.02.62c.3.23.53.44.78.6q.35.27.76.33.42.07 1.09-.17.6-.25 1.11-.54.53-.28 1.07-.53a6 6 0 0 1 2.45-.56c1.91 0 3.4.36 5.02.92l.7.25 1.03.44q.6.26 1.29.49.68.22 1.32.3.64.09 1.11-.07c.32-.1.46-.25.52-.38q.09-.21 0-.54a5 5 0 0 0-.3-.7q-.2-.38-.31-.74l-.8-2.1h-.01c-2.43-7-4.31-14.89-8.35-21.62a20 20 0 0 0-3.44-4.22c-1.3-1.26-2.74-2.5-4.09-3.9-2.45-2.6-2.73-4.97-3.54-7.98-.52-2.25-2.6-3.44-5.1-4.43q-.94-.37-1.9-.71l-1.93-.71a15 15 0 0 1-3.41-1.74l-.25-.18a8.5 8.5 0 0 1-3.6-7.16c-.13-1.86-.13-3.73-.16-5.61a49 49 0 0 0-.37-5.77c-.27-2.08-.8-3.93-1.34-6.03l-.17-.62q-.07-.27-.16-.47c-.12-.25-.3-.46-.67-.68a2 2 0 0 0-.48-.08h-.66l-.68.06-.54.03h-.01c-3.28-.23-6-1.64-7.92-4l-.2-.23c-.47-.54-.9-1.16-1.33-1.76-.5-.7-1.04-1.39-1.7-1.96-.69-.7-1.13-1.08-1.58-1.18s-.94.04-1.75.5c-2.72 1.65-5.74 2.37-8.77.94a15 15 0 0 1-3.84-2.76c-1.13-1.06-2.12-2.15-3.2-3.08-2.14-1.85-4.28-2.77-6.7-3.94a26 26 0 0 1-6.17-3.5c-1.77-1.47-3.08-3.3-3.36-5.67a1 1 0 0 1-.03-.3.5.5 0 0 1 .15-.27 1 1 0 0 1 .63-.23c.44-.03 1.04.12 1.65.47l.26.17.02.02.02.02c1.86 2.87 4.92 4.42 8.32 5.62 1.7.59 3.47 1.09 5.21 1.62s3.45 1.08 5.01 1.78c1.64.7 3.27 1.88 4.62 3.05l.02.02.01.02q.18.28.54.54.34.23.78.59.17.14.27.1.12.01.31-.3l.03-.04.04-.02q.18-.08.42-.27l.53-.41c.36-.29.78-.6 1.21-.72 4.13-1.9 8.5.01 11.22 2.82l.22.23q.78.82 1.43 1.72.74 1.04 1.52 1.96c1.07 1.2 2.3 2.1 4.27 2.1 2.03 0 3.81.24 5.26.95a6.3 6.3 0 0 1 3.11 3.46l.13.35c1.36 3.97 1.9 8.41 2.17 12.37v6.53Z"/><path fill="#fff" stroke="#fff" stroke-width=".3" d="M164.64 319a59 59 0 0 1 26.25-4.11c1.83.12 2.76 1.4 2.76 2.65 0 .62-.23 1.23-.7 1.66a2.7 2.7 0 0 1-2.08.64 57 57 0 0 0-20.71 2.55c-2.42.82-6.18 2.27-9.03 4.23-1.42.99-2.6 2.09-3.28 3.3a4.5 4.5 0 0 0-.62 2.33c4.94 1.12 9.12 4.38 10.06 9.06.83 4.96-2.19 10.14-7.36 12.5-3.14 1.29-6.4 1.46-9.63 1.55-3.25.09-6.46.09-9.53 1.01-1.47.46-2.73 1.27-4.09 1.97s-2.8 1.3-4.59 1.3a9 9 0 0 1-3.4-.67 239 239 0 0 1-5.9 10.6c-.44.76-1.3 1.12-2.18 1.18a3.4 3.4 0 0 1-2.37-.68q-1.1-1.04-2.2-2.03.83 8.98.83 17.98c0 .92-.76 1.42-1.5 1.52q-.6.07-1.1-.18a1.2 1.2 0 0 1-.66-.84l-.7-3.14a189 189 0 0 1-3.61-22.25l-.02-.23c-.02-1.13.82-1.91 1.84-2.25a3.6 3.6 0 0 1 3.1.36l.18.13c1.35 1.29 2.7 2.5 4.04 3.73l1.36 1.23a85 85 0 0 0 5.14-10.02v-.01l.01-.01a3.33 3.33 0 0 1 5.24-.64l.13.15c.46.56.95.83 1.45.92q.78.12 1.62-.2c.56-.2 1.13-.5 1.67-.82.54-.3 1.07-.63 1.55-.87q2.46-1.05 4.9-1.4c1.9-.36 3.86-.47 5.81-.56 1.96-.09 3.9-.15 5.79-.38 2.01-.23 4.08-.75 5.7-1.72a6 6 0 0 0 3.06-4.43c.53-3.6-2.87-6.82-7.13-7.05h-.02a4 4 0 0 1-1.71-.6 3 3 0 0 1-1.1-1.35c-1.51-3.68-.2-6.94 2.32-9.62s6.24-4.77 9.62-6.17z"/><path fill="#fff" stroke="#fff" stroke-width=".3" d="M213.53 312.1c2.85 0 5.84.52 8.35 1.66 2.52 1.15 4.58 2.92 5.54 5.41.55 1.42.6 2.64.28 3.65a4.5 4.5 0 0 1-1.96 2.4c-1.86 1.2-4.66 1.6-7.37 1.37-3.86-.35-7.8-.8-11.72-1.3q.02.04.05.06l.21.3v.01a5.5 5.5 0 0 1 .4 5.45c2.96.82 5.75 1.97 8.5 3.2 4.25 1.88 8.4 3.93 13 5.23l.94.25c2.94.81 5.9.99 8.85.96q2.22-.04 4.45-.14t4.45-.12c5.68 0 11.35.7 16.75 2.1l.79.18c1.86.44 4.03 1.03 6.04 1.8 2.3.87 4.42 1.99 5.66 3.42.69.77.98 1.54.96 2.27s-.36 1.4-.86 2.02c-1 1.22-2.71 2.22-4.2 2.92-8.62 3.96-16.7 8.37-23.97 13.72-3.5 2.79-7 5.81-10.23 8.83a25 25 0 0 0-2.68 2.54q-.17.32-.48.78 1.12-.34 2.22-.55c3.77-.93 7.57-1.64 11.38-.93l.72.19a12 12 0 0 1 4.2 1.95l.27.22.02.01q.8.88 1.48 1.75a34 34 0 0 0 1.47 1.73c.9.77 1.92.84 3.05.72q.86-.1 1.76-.23.8-.1 1.61-.08l.24.02c1.65.24 3.29.95 4.4 1.9 3 2.83 3.82 7.07 4.36 10.56l.14.78c.63 3.93.35 7.67-.41 11.6-.27 2.12-.74 4.42-.74 6.64 0 2.08.41 4.07 1.76 5.71l.29.33c3.05 3.32 7.3 3.85 11.52 2.98a29 29 0 0 0 11.2-5.33 73 73 0 0 0 4.82-4.29c1.57-1.48 3.12-3 4.74-4.43 3.14-2.76 6.55-5.21 10.83-6.54l.42-.12a2.3 2.3 0 0 1 2.66.87q.39.59.33 1.25c-.04.44-.27.86-.7 1.17-3.8 3.26-7.81 6.27-11.58 9.76-3.77 3.25-7.3 6.76-11.9 9.33-7.3 4.2-17.62 5.63-24.96.46a12 12 0 0 1-4.29-4.93c-.82-1.79-1.12-3.7-1.14-5.66a39 39 0 0 1 .55-5.99c.3-2 .63-3.98.77-5.9.13-2.09.2-4.46-.07-6.78a15 15 0 0 0-2.06-6.39l-.01-.01c-.33-.62-.71-.99-1.14-1.2a3 3 0 0 0-1.46-.26q-.81.03-1.76.2c-.63.09-1.3.18-1.98.18-1.67 0-3.04-.72-4.4-1.66l-.01-.01c-.69-.6-1.24-1.3-1.78-2s-1.07-1.39-1.73-1.96c-1.3-1.12-3.4-1.36-5.28-1.12-2 .23-4 .92-6 1.5-2 .59-3.97 1.06-5.9.82a4.9 4.9 0 0 1-3.75-2.46 5.6 5.6 0 0 1-.42-4.25c.55-1.78 1.79-3.37 3.2-4.8 1.43-1.43 3.06-2.72 4.4-3.88a121 121 0 0 1 22.68-15.84c1.88-.93 4.04-2.1 6.2-3.03 1.1-.7 2.46-1.18 3.52-1.63h.01c.4-.12.91-.4 1.46-.67l.48-.22-.35-.24q-.99-.35-1.87-.69l-1.88-.7h-.01a37 37 0 0 0-7.25-2.09c-5.37-1.04-10.75-.8-16.11-.69s-10.7.12-16-1.4c-4.32-1.29-8.38-3.33-12.48-5.16-4.11-1.83-8.27-3.45-12.83-3.91-1.67-.13-2.75-1.16-2.96-2.3-.11-.58 0-1.18.35-1.7.34-.5.91-.93 1.72-1.17l-.05-.31-.03-.2.19.02.94.1.02-.01a.3.3 0 0 0 .13-.18q.01-.07-.02-.17a1.5 1.5 0 0 0-.51-.52q-.41-.3-1.01-.59a31 31 0 0 0-4.19-1.59h-.02c-2.72-1.18-4.4-2.85-4.67-5.48-.14-1 .37-1.75 1.15-2.21a4.6 4.6 0 0 1 2.8-.52l8.62 1.05 8.62 1.05q1.83.2 3.65.46 1.83.28 3.63.47c.74.06 1.19-.02 1.44-.16a.5.5 0 0 0 .23-.23.5.5 0 0 0 .03-.3 2 2 0 0 0-.5-.9 6 6 0 0 0-1.03-.93l.09-.12-.1.11c-1.85-1.48-4.24-2.06-6.75-2.2-2.52-.15-5.13.14-7.43.37-5.4.7-11.06 1.17-16.45 1.63a2 2 0 0 1-1.64-.5 2.2 2.2 0 0 1-.64-1.4c-.1-1.07.38-2.3 1.4-2.8l.02-.01h.02c8.08-.94 16.19-2.34 24.29-2.34Z"/><path fill="#fff" stroke="#fff" stroke-width=".3" d="M418.68 298.6c1.9-.58 3.87-.76 5.82-1 1.95-.22 3.89-.51 5.75-1.32 1.48-.7 2.89-1.5 4.3-2.32a60 60 0 0 1 4.33-2.33 22 22 0 0 1 10.86-2.1c.75.05 1.63.17 2.57.27s1.93.2 2.92.21c1.98.03 3.88-.26 5.19-1.38a4 4 0 0 0 1.26-2.53q.12-.75.17-1.5.04-.76.14-1.47l.4-2.44.4-2.45c.82-3.5 1.9-7 3.52-10.28 1.36-2.8 3.27-5.4 6.55-6.82h.01q1.32-.44 2.59-.75 1.26-.32 2.44-.68c1.57-.5 3.03-1.12 4.36-2.27 1.29-1 2.57-2.1 3.93-3.18a28 28 0 0 1 4.22-2.86c2.87-1.51 6.05-2.12 9.72-.44l.36.17q.84.48 1.04 1.17.18.68-.17 1.31a2.6 2.6 0 0 1-2.57 1.3c-2.38-.34-4.43.5-6.27 1.78-1.84 1.27-3.44 2.94-4.94 4.24l-.1-.12.1.12c-3.26 2.58-6.25 3.75-10.3 4.91a7.8 7.8 0 0 0-4.84 3.95c-1 1.78-1.53 3.86-2.07 5.73-1.35 4.17-1.61 8.1-2.16 12.08-.68 3.9-3.09 6.1-6.26 7.24s-7.1 1.27-10.88 1.03c-4.82-.23-7.76.7-11.79 2.78-3.22 1.85-6.2 3.73-10 4.67-1.9.46-3.81.58-5.58.87-1.78.29-3.43.75-4.88 1.89h-.01a18 18 0 0 0-2.81 2.43c-.88.87-1.76 1.75-2.86 2.46-2.44 1.65-5.18 2.6-8.2 2.12-.8-.12-1.7-.35-2.6-.55s-1.83-.38-2.76-.38c-1.58 0-3.17.68-4.53 1.15-2.95 1.16-5.95 2.58-9.22 2.58-1.09 0-2.09-.1-3.04-.2q-1.43-.17-2.77-.27c-1.8-.12-3.6 0-5.73.92a122 122 0 0 0-10.87 5.87c-3.53 2.09-7.04 4.25-10.69 6.23q-2.8 1.56-5.52 3.14a395 395 0 0 1-5.53 3.14c-1.62.93-3.52 1.81-5.33 2.74a25 25 0 0 0-4.9 3.06q-.83.76-1.04 2.08c-.15.86-.13 1.85-.01 2.88.23 2.06.83 4.18 1.1 5.6l.62 2.26a50 50 0 0 0 2.1 6.22l.24.57a50 50 0 0 0 11.87 16.7l.5.47a19 19 0 0 0 4.31 3.18c1.7.86 3.55 1.3 5.25.75 1.57-.46 2.63-1.59 3.67-2.81 1.04-1.21 2.07-2.53 3.6-3.24 2.72-1.41 6.55-1.42 9.04.48l.2.13c.98.7 1.5 1.6 2 2.48l.02.03v.04l.02.06q.01.04.05.12l.18.33.13.23.16-.14c.7-1.2 2.22-2.2 3.83-2.97a30 30 0 0 1 4.6-1.73 21.6 21.6 0 0 1 9.5-.7c1.37.12 2.8.47 3.97 1.12a4.5 4.5 0 0 1 2.37 2.95 4.4 4.4 0 0 1-.7 3.4c-.61.97-1.5 1.86-2.3 2.78l-.12-.1.11.1c-1.18 1.25-1.51 2.61-1.75 4.03-.23 1.41-.37 2.9-1.2 4.33-1.1 2.13-3.28 3.77-5.44 5.17-2.71 1.64-5.7 2.58-8.94 3.28h-.01c-1.47.23-3.1.58-4.73.76a12 12 0 0 1-4.78-.3c-1.78-.6-3.15-1.72-4.52-2.76-1.39-1.05-2.78-2.01-4.63-2.36-3.19-.69-6.39.23-9.06 1.85-2.41 1.62-4.42 3.64-6.55 5.54-2.13 1.89-4.37 3.65-7.23 4.7-3 1.18-6.26 1.18-9.5.95q-1.21-.1-2.46-.25t-2.45-.16a7 7 0 0 0-4.42 1.3l-.01.02h-.02c-.72.38-1.6.26-2.15-.25-.57-.52-.77-1.41-.2-2.5v-.02l.01-.01c2.2-2.84 5.15-3.6 8.3-3.9 1.56-.14 3.2-.17 4.81-.28 1.62-.11 3.23-.3 4.76-.76 3.2-1.04 5.53-3.28 7.86-5.63 2.32-2.36 4.63-4.82 7.76-6.23a20 20 0 0 1 11.15-1.18c1.66.2 3.33.77 4.8 1.38l.62.26h.01c.83.48 1.58 1.07 2.32 1.65s1.47 1.16 2.27 1.62c.64.33 1.5.46 2.5.44.98-.01 2.09-.17 3.2-.4a49 49 0 0 0 5.77-1.68c1.88-.58 3.27-1.33 4.22-2.35a6.4 6.4 0 0 0 1.61-4.04c.26-2.7 1.28-5.89 3.82-7.6a10 10 0 0 0-2.04-.15c-1.62.23-3.22.46-4.82.92-1.87.7-3.47 1.62-5.07 3l-.01.01q-.4.26-.81.56l-.84.57q-.86.6-1.9.98c-2.77.96-5.26-.48-6.63-2.38q-.31-.46-.55-.94t-.5-.86a2 2 0 0 0-.6-.58 1.5 1.5 0 0 0-.9-.12 4 4 0 0 0-2.12 1.21c-.63.6-1.16 1.3-1.57 1.77-2.12 2.05-4.74 3.67-8.13 3.98l-.33.02c-7.36.47-13.07-4.7-17.11-9.12a60 60 0 0 1-11.08-17.03c-1.62-3.5-2.7-7-3.25-10.75-.27-1.5-.6-3.14-.77-4.77a13 13 0 0 1 .24-4.83 7.2 7.2 0 0 1 2.64-4.06c1.26-1.03 2.83-1.85 4.44-2.78q2.63-1.41 5.25-2.9 2.63-1.51 5.27-2.92c3.63-2.1 7.28-4.13 10.91-6.17q5.46-3.04 10.92-6.16c3.5-2.09 6.75-4.43 10.82-5.6l.71-.18c1.66-.4 3.33-.73 5-.52 1.1 0 2.12.17 3.09.35.98.17 1.9.34 2.84.34 1.72 0 3.38-.57 5.06-1.26s3.38-1.52 5.14-2h.02c3.8-.7 6.26 0 9.76.7a5 5 0 0 0 3.9-1.07c1.1-.8 2.02-1.9 2.98-2.84l.71-.62c1.66-1.41 3.4-2.78 5.54-3.6Z"/><path fill="#fff" stroke="#fff" stroke-width=".3" d="M347.5 80.94c.8-.18 1.65-.14 2.34.18.69.33 1.21.94 1.35 1.86.4 2.65 1.74 5 2.92 7.4s2.21 4.81 1.94 7.53c-.14 1.3-.55 2.54-.85 3.78s-.5 2.5-.23 3.86a9.4 9.4 0 0 0 4.07 5.91l.44.27a11.8 11.8 0 0 0 8.79 1.38 31 31 0 0 0 2.13-.6q1.05-.34 2.11-.62a10.4 10.4 0 0 1 4.72-.17c3 .7 5.45 2.35 7.87 3.97.54.35 1.8 1.1 3.1 1.56.65.23 1.3.38 1.86.38q.75.01 1.2-.38l.12-.13c.85-1.1 2.46-1.51 3.81-1.27.68.12 1.31.4 1.75.87.45.47.7 1.1.63 1.9q-.03.44.1.66a.7.7 0 0 0 .42.3c.39.12.97.06 1.62-.1 1.3-.31 2.76-1 3.31-1.24 2.15-1.16 4.32-2.33 6.75-3.26 4.87-1.87 10-3.03 15.14-3.5 4.6-.23 8.98.23 12 3.78 1.62 1.75 2.84 3.68 4.05 5.57a31 31 0 0 0 4.02 5.35l.56.52a49 49 0 0 0 9.38 6.9c.28.13.72.36 1.24.63q.8.44 1.73.89c.6.29 1.2.54 1.71.7q.4.12.68.15.3.03.45-.04.03 0 .13-.15.1-.12.2-.35.2-.47.4-1.07.2-.62.4-1.13l.21-.45q.1-.19.22-.3c1.26-1.45 3.07-1.8 4.94-1.68 1.88.11 3.85.7 5.46 1.17 4.6 1.16 9.18 2.8 13.5 4.66 2.43.93 4.86 1.86 7.03 3.03 1.08.59 2.14 1.21 3.24 1.56 1.08.34 2.19.4 3.36-.17a7.4 7.4 0 0 1 4.4-1.06c1.3.17 2.49.87 3.43 2.23l.18.28v.01l.01.01c.28.6.48 1.37.72 2.08.23.73.5 1.4.88 1.84.37.43.88.66 1.47.8q.44.1.94.16l1 .16c1.61.23 3.22.28 4.85.43s3.25.38 4.89.97c3.27 1.18 5.18 3.54 7.33 5.85.68.7 1.27 1.26 1.95 1.57.66.3 1.43.36 2.48.02h.01l.34-.1c.79-.23 1.48-.58 2.2-.93.7-.36 1.42-.72 2.23-.97l.36-.1c2.9-.9 6.6-.5 8.6 1.92l.18.24.12.17c1.12 1.75.7 3.45.03 5.12-.34.87-.74 1.72-1.04 2.6a7 7 0 0 0-.44 2.32l.01.34q.12 1.46.39 2.84t.49 2.73c.27 1.82.34 3.65-.35 5.66a16.4 16.4 0 0 1-6.24 8.21l-.26.22a16 16 0 0 1-4.64 2.37q-.55.18-1.36.36-.81.2-1.69.43-.87.24-1.57.54-.69.33-.97.7a.7.7 0 0 0-.11.53q.04.23.28.43c.33.29.88.52 1.53.7 1.3.38 2.9.55 3.6.67 2.43.7 4.85 1.17 7.28 1.63.84.13 1.42.56 1.75 1.16.32.59.4 1.32.25 2.04-.42 2.28-1.94 3.65-3.9 4.48-1.94.82-4.32 1.11-6.48 1.23-1.49.12-2.68.23-3.63.63a4 4 0 0 0-2.18 2.3c-.4.95-.53 2.02-.48 3.09 1.56 0 3.14.47 4.47 1.38 3.86 2.38 3.85 6.43 3.85 9.9 0 .93.06 1.73.32 2.43s.71 1.31 1.5 1.88c.67.46 1.3.88 1.78 1.41.43.48.75 1.05.92 1.83l.06.35c.14 1.82-.91 3.26-2.1 4.6-.6.68-1.21 1.32-1.76 2q-.84.98-1.27 2.07c-.4 1.5-.62 3.14-.85 4.8a35 35 0 0 1-.94 4.92 11 11 0 0 1-2.22 4.35 10.3 10.3 0 0 1-4.71 3.02c-2.32.7-4.9.82-7.47.77q-1.93-.06-3.81-.17a70 70 0 0 0-3.6-.12c-5.4 0-10.53-.24-15.93-.94q-.84-.1-1.19-.57c-.22-.3-.24-.7-.11-1.08.25-.76 1.11-1.54 2.36-1.9h.02c8.1-.93 15.93-.7 24.02-.7 1.88 0 3.4-.18 4.62-.74a5.5 5.5 0 0 0 2.78-3.12c.8-2.3 1.07-4.85 1.34-7.41v-.02c.54-2.55 1.09-5.38 3-7.51l.02-.02 1.32-1.13.77-.67.19-.16-.18-.12a39 39 0 0 1-1.6-1.16 5 5 0 0 1-.51-.5c-1.66-1.67-1.93-4.05-2.2-6.13-.13-.71-.13-1.48-.13-2.23 0-.76 0-1.5-.13-2.18v-.03a4.48 4.48 0 0 0-.71-1.86 1.6 1.6 0 0 0-.78-.65c-.27-.08-.59-.03-.96.3h-.02c-.84.61-1.97.8-2.95.58-.98-.21-1.84-.82-2.13-1.82-1.05-3.85-1.35-8.18 1.37-11.67l.28-.34a10.3 10.3 0 0 1 6.01-3.3l.22-.05c.53-.09 1.22-.1 1.95-.12l1.47-.04-3.1-.67c-1.88-.46-4.07-.93-5.72-2.12l.09-.12-.1.12a4.9 4.9 0 0 1-1.94-4.74 6.6 6.6 0 0 1 3.03-4.35c.83-.6 1.8-.95 2.81-1.24 1.03-.3 2.09-.52 3.16-.87 2.42-.7 4.55-1.85 6.14-3.68a9 9 0 0 0 2.49-6.13c.03-2.07-.5-4.2-.9-6.55-.28-2.12 0-4.01.8-6.13h.01v-.02q.34-.54.64-1.11t.36-.98a.5.5 0 0 0-.03-.3q-.04-.08-.2-.14a1 1 0 0 0-.5-.02q-.35.05-.9.21-1.49.37-2.81.91c-.88.35-1.74.72-2.6 1a8.6 8.6 0 0 1-5.73.19 8.6 8.6 0 0 1-4.1-2.63q-.81-.87-1.58-1.77t-1.65-1.69c-2.65-2.28-6.1-2.29-9.62-2.52-3.25-.23-6.53-.93-8.73-3.3a9 9 0 0 1-1.92-3.78 6 6 0 0 1-1.05.53c-.51.2-1.06.38-1.46.5h-.01c-2.34.47-4.6-.12-6.73-1.03-1.07-.45-2.11-.99-3.12-1.5q-1.5-.81-2.92-1.44c-4.85-2.1-9.7-3.95-14.81-5.58q-.53-.18-1.1-.42l-1.2-.45c-.8-.3-1.6-.52-2.24-.52q-.5 0-.72.05a.5.5 0 0 0-.29.14q-.08.09-.18.31-.1.23-.3.59c-.53 1.15-1.1 2.6-2.77 3.32-1.93.83-3.99.71-5.93.18a25 25 0 0 1-5.25-2.28 47.5 47.5 0 0 1-18.12-16.34l.12-.08-.13.07q-.4-.7-.78-1.46a18 18 0 0 0-.83-1.44 5.4 5.4 0 0 0-2.36-2.16 7 7 0 0 0-3.2-.54c-1.18.03-2.38.2-3.47.32a42 42 0 0 0-15.04 4.87c-3.22 1.86-7.05 4.22-11.43 3.28a9 9 0 0 1-4.25-2.25c-1.3.36-2.66.4-4.03.21-3.06-.4-6.18-1.93-8.75-3.57l-1.22-.72c-1.23-.71-2.51-1.35-4.09-1.35-.92.11-1.84.46-2.79.8-.94.35-1.9.7-2.86.83-3.52.47-7.05.23-10.31-.94-6.8-2.35-11.17-8.45-10.62-14.82q.22-1.24.54-2.4.31-1.15.54-2.27c.27-1.49.26-2.97-.53-4.56l.14-.06-.14.06c-.67-1.51-1.54-2.95-2.32-4.45a16 16 0 0 1-1.74-4.67c-.28-1.85 1.23-3.12 2.82-3.48Z"/><path fill="#fff" stroke="#fff" stroke-width=".3" d="M103.66 52.51a5 5 0 0 0 .45 1.71q.5-.04 1.09-.52.6-.51 1.2-1.25c.38-.48.74-.98 1.06-1.4.3-.42.59-.79.8-.98 1.91-1.64 4.4-2.6 6.89-1.66.83.24 1.53.72 2.19 1.12.67.4 1.3.73 2.06.74a10 10 0 0 0 2.25-.83c.8-.37 1.61-.78 2.3-1.02 7.64-3.19 15.03-.2 19.68 5.32l.44.54a28 28 0 0 1 4.72 10.07l.17.7.5 2.94v-2.21c0-3.96 0-7.92.28-11.88 1.08-13.29 5.4-27.3 17.86-35.95l.26-.17c1.3-.81 2.61-1 3.93-.31l.33.14c1.62.65 3.42.58 5.24.2 1.94-.4 3.88-1.16 5.65-1.74 3.77-1.17 7.84-2.57 11.9-2.57h.02c2.17.12 4.08.64 5.9 1.32q1.37.5 2.72 1.08 1.34.56 2.74 1.1c3.25 1.07 6.73.74 9.8-.64l.6-.29c1.59-.85 2.75-2.1 3.75-3.5s1.83-2.93 2.77-4.39c.93-1.44 1.96-2.8 3.36-3.78a9.3 9.3 0 0 1 5.56-1.6c2.05 0 3.95.52 5.84 1.13 1.78.58 3.54 1.22 5.4 1.59l.38.07c2.39.46 4.65-.06 6.86-.9 1.11-.42 2.2-.92 3.29-1.42q1.62-.77 3.25-1.4l.57-.21a22 22 0 0 1 9.55-1.22c1.95.22 3.8.78 5.33 1.77 1.34-.89 2.92-1.49 4.6-1.8 3.13-.59 6.6-.18 9.46 1.23 3.68 1.77 5.99 4.59 7.78 7.69a61 61 0 0 1 2.42 4.76c.65 1.4 1.28 2.76 1.97 4.06l.3.55c1.87 3.45 4.54 5.53 8.04 7.62 2.62 1.59 4.78 3.63 5.16 6.58l.03.28v.01c.14 3.8-1.93 6.51-4.88 8.51a28 28 0 0 1-6.7 3.13 33.4 33.4 0 0 1 2.85 19.46c4.58-.7 9.38-.96 13.75.42.75.23 1.47.59 2.17.97q1.04.6 2.07 1.16c1.28.68 2.57 1.16 4.02.94l.3-.05c1.47-.35 2.8-.81 4.16-1.22 1.18-.36 2.37-.67 3.65-.83l.56-.05c2.45-.23 5.2.23 7.12 1.9a5.5 5.5 0 0 1 1.67 2.63q.1.38.13.8l.07.82c.07.55.2 1.02.56 1.33.39.34.91.62 1.46.95s1.1.68 1.52 1.16a8 8 0 0 1 1.53 2.5l.12.35c.55 2.15 0 4.06-1.1 5.94a2.5 2.5 0 0 1-3.4.66 2.4 2.4 0 0 1-1.08-1.45 2.8 2.8 0 0 1 .45-2.16c.4-.67.5-1.2.42-1.64a2 2 0 0 0-.7-1.1q-.57-.48-1.37-.88c-.5-.27-1.06-.53-1.53-.83h-.01a6.3 6.3 0 0 1-2.76-4.5l-.1-.33c-.25-.72-.55-1.16-1-1.39-.52-.26-1.29-.27-2.5-.04-1.06.23-2.07.58-3.08.92-1 .35-2.03.7-3.12.94h-.01c-2.17.24-4.35.24-6.54-.47-.96-.35-1.84-.82-2.72-1.29-.87-.46-1.74-.92-2.66-1.27l-.46-.12c-4.67-1.19-9.59-.08-14.3.82-2.25.72-4.52-1.22-3.95-3.44l.16-.71c1.66-7.41.78-14.8-3.11-21.75l-.08-.14a2.8 2.8 0 0 1-.1-2.32c.3-.75.95-1.4 1.96-1.67l.2-.05c1.49-.35 3.1-.7 4.6-1.19 1.51-.5 2.9-1.12 3.96-2.04a5 5 0 0 0 1.74-2.81c.16-1-.16-1.99-1.19-2.77-.8-.7-1.8-1.27-2.85-1.85-1.04-.58-2.13-1.17-3.08-1.87v-.01a19 19 0 0 1-4.62-5.62c-1.36-2.22-2.3-4.68-3.38-7.03s-2.28-4.6-4.15-6.44a12 12 0 0 0-5.68-2.84c-2.16-.37-4.24.09-5.41 2.11-.57 1-1.72 1.41-2.83 1.38s-2.24-.5-2.82-1.37c-1.17-1.9-3.37-2.26-5.79-1.95-2.4.32-4.94 1.3-6.69 2l-.91.43c-4.56 2.15-9.2 3.94-14.55 2.84-1.16-.24-2.42-.7-3.69-1.16s-2.55-.94-3.77-1.23a7 7 0 0 0-3.36-.1c-.99.28-1.85.93-2.5 2.18-2.16 3.95-3.52 7.25-7.88 9.83a22.5 22.5 0 0 1-13.03 2.82c-2.6-.24-4.91-1.36-7.2-2.34-2.29-1-4.55-1.85-7.07-1.62-2.2.23-4.32.8-6.39 1.45-2.06.66-4.11 1.41-6.15 2-3.43 1-6.9 1.59-10.65.57-6.89 4.94-10.49 11.83-12.37 19.32-1.98 7.89-2.05 16.42-2.05 23.99 0 1.86-.06 4.91-1.02 7.3a5.7 5.7 0 0 1-2.24 2.87c-1.05.64-2.42.86-4.2.45a6.7 6.7 0 0 1-3.6-2.01 9 9 0 0 1-1.84-3.33c-.4-1.23-.66-2.55-.9-3.81s-.45-2.48-.78-3.52c-1.08-3.72-2.95-7.63-6.68-9.93a7.6 7.6 0 0 0-4.93-1.37c-1.63.11-3.3.69-5.19 1.39-3.22 1.16-6.8 2.35-10.1.45h-.01l-.01-.01q-.38-.33-.8-.57-.33-.22-.67-.48-.4.31-.71.7c-.36.43-.71.91-1.12 1.27-1.77 1.76-4.16 3.3-6.55 3.73-1.2.23-2.41.18-3.55-.26a6.6 6.6 0 0 1-3.08-2.56v-.01c-.7-1.2-.9-2.62-1.17-3.98s-.6-2.66-1.5-3.67l-.2-.18a5.8 5.8 0 0 0-3.88-1.2 8 8 0 0 0-4.1 1.17 10.6 10.6 0 0 0-3.69 3.9q-.66 1.14-1.3 2.33-.64 1.18-1.44 2.34v.01c-1.92 2.13-5.24 3.34-8.02 1.66-1.4-.85-1.81-2.06-2.12-3.3-.3-1.23-.5-2.47-1.42-3.48a4.2 4.2 0 0 0-2.76-1.11 4.2 4.2 0 0 0-2.96.9 3.8 3.8 0 0 1-4.95-.18 3.1 3.1 0 0 1-1.1-2.02 2.6 2.6 0 0 1 1-2.22c2.47-2.25 6.02-3.01 9.36-2.54 3.23.45 6.28 2.07 7.97 4.65l.16.25q.22.38.46.92.3-.5.64-.94c2.16-3.03 4.88-5.85 8.96-7.26l.57-.19a15.7 15.7 0 0 1 8.93-.01c2.94.88 5.47 2.67 6.75 5.37l.12.26v.01l.2.53c.42 1.23.65 2.47.89 3.69v.02Z"/><path fill="#fff" stroke="#fff" stroke-width=".3" d="M-84.97 25.13c9.98-.23 20.23 0 30.21.47 20.5 1.16 40.74 4.2 60.43 9.31 4.03 1.16 7.86 2.1 10.59 5.4l.2.23c.46.54.89 1.15 1.33 1.73.5.67 1.03 1.3 1.68 1.74 1.3.9 3.13.9 5.02.67 4.05-.46 7.87-.47 11.16 2.13l.25.18q.33.24.6.5a8 8 0 0 0 1.07-2.69c.16-1.26 1.4-1.92 2.66-2.04.65-.06 1.32.02 1.9.23s1.09.56 1.38 1.07l.1.15q.35.49.78.71.5.26 1.08.24c.8-.02 1.7-.37 2.66-.87.96-.49 1.94-1.1 2.87-1.66.93-.54 1.83-1.02 2.6-1.2 1.65-.24 3.3 0 4.69.95.84.48 1.4 1.2 1.94 2.15q.22.37.38.84.15.42.17.8.65-.12 1.33-.03a4.3 4.3 0 0 1 1.97.75c.55.4.95.96 1.02 1.65v.03a3.8 3.8 0 0 1-1.86 2.97c-1.01.6-2.34.78-3.72.42a7.5 7.5 0 0 1-3.3-2.14l-.02-.01v-.01c-.15-.25-.29-.61-.42-.99l-.4-1.13q-.2-.42-.21-.66l-.15.05H55c-.64.11-1.29.56-1.96 1.08s-1.36 1.11-2.05 1.47c-1.35.7-3 1.41-4.65 1.41a12 12 0 0 1-3.86-.63 12.5 12.5 0 0 1-6.06 5.04c-1.4.6-2.94.3-3.93-.48q-.77-.61-.98-1.52c-.12-.6-.01-1.27.4-1.93q.07-.11.02-.19a1 1 0 0 0-.25-.22c-.26-.16-.68-.3-1.15-.42-.94-.23-2-.34-2.26-.34-1.07 0-2.14.11-3.22.2s-2.17.15-3.27.03c-3.82-.24-6.55-2.13-8.72-4.7v-.01c-1.1-1.42-1.88-2.78-3.47-3.69-.79-.45-1.78-.74-2.82-.97q-.79-.17-1.57-.32-.79-.15-1.5-.32c-4.58-1.17-9.43-2.1-14.28-3.03a324 324 0 0 0-53.9-6.05 208 208 0 0 0-23.99.47 49 49 0 0 0-9.13 1.83c-2.96.95-5.62 2.34-7.49 4.4-.86.93-1.57 1.98-2.23 3.08-.65 1.09-1.27 2.24-1.97 3.33-1.39 2.2-3.1 4.2-6.1 5.27-3.3 1.19-6.32 0-9.28-1.16-1.46-.58-2.4-.5-3.06-.02-.66.49-1.05 1.43-1.32 2.7-.67 2.88-.34 6.11.47 9.3.7 2.79 1.77 5.54 2.84 7.97l.45 1.02c2.7 6.26 7.26 11.83 12.64 16.48.86.74 1.07 1.91.75 2.95a3.2 3.2 0 0 1-2.44 2.2q-.42.08-.6.27a1 1 0 0 0-.25.47c-.07.39.04.9.26 1.44.43 1.08 1.22 2.22 1.5 2.7a16 16 0 0 1 2.72 7.05c.54 4.47-.82 8.71-4.92 11.54a12 12 0 0 1-5.73 2.13h-.02c-.81 0-1.7-.12-2.53-.18a6 6 0 0 0-2.27.17h-.02c-.63.11-1.21.55-1.74 1.1-.54.55-1 1.17-1.41 1.65-4.05 4.42-8.37 8.85-12.68 13.27a573 573 0 0 1-12.67 13.27c-3.8 3.71-7.82 7.41-10.97 11.5l-.62.81c-3.6 4.97-4.14 10.28-3.14 15.54s3.56 10.49 6.12 15.26c.84 1.45.57 3.42-1.15 4.16-2.74 1.19-4.94.95-7.66 0q-.24-.1-.64-.31-.4-.22-.89-.44a6 6 0 0 0-.92-.35 1.4 1.4 0 0 0-.7-.05q-.33.08-.68.5-.34.42-.64 1.02t-.55 1.18-.46.95c-3.77 6.98-7.28 13.73-11.06 20.48-.2.47-.49.97-.78 1.47q-.45.78-.8 1.57c-.42 1.05-.54 2.1.22 3.08a8 8 0 0 0 2.19 1.8c.86.54 1.82 1.08 2.63 1.66l10.25 7.45c.75.52 2.05 1.6 3.63 2.83a54 54 0 0 0 5.33 3.7c1.88 1.12 3.76 1.98 5.38 2.18q1.21.16 2.18-.22a3.3 3.3 0 0 0 1.6-1.46c1-1.61 2.92-1.65 4.31-.93.7.36 1.28.92 1.57 1.6a2.4 2.4 0 0 1-.23 2.27v.01c-2.2 3.08-6.03 4.49-10.11 4.25-4.64-.23-8.45-3.06-11.68-5.38q-3.43-2.45-6.87-5-3.45-2.55-6.88-5c-.87-.64-1.91-1.3-3-2.02a53 53 0 0 1-3.27-2.26c-2.1-1.6-3.89-3.44-4.3-5.6-.42-2.14.34-4.39 1.43-6.52a46 46 0 0 1 1.77-3.1c.6-1 1.2-1.94 1.67-2.8 1.21-2.45 2.5-4.84 3.77-7.22q1.94-3.57 3.77-7.21.6-1.23 1.22-2.66c.43-.93.9-1.89 1.45-2.77 1.13-1.76 2.64-3.25 4.99-3.73l.37-.04c.82-.06 1.6 0 2.37.07.88.09 1.75.2 2.68.2h.04l.06.02c-3.71-7.6-6.48-15.74-4.29-23.88 1.09-4.34 3.73-8.2 6.88-11.78 3.13-3.58 6.79-6.92 9.87-10.16q5.67-5.78 11.33-11.64t11.33-11.64c1.6-1.61 3.1-3.43 4.86-4.84a10 10 0 0 1 6.56-2.42q.92-.07 1.73-.09.82-.02 1.56-.1a4.7 4.7 0 0 0 2.81-1.4c1.57-1.57 1.84-3.84 1.31-5.9-.4-1.95-1.53-3.67-2.58-5.46-1.04-1.77-2-3.6-2-5.75 0-1.5.57-2.99 1.58-4.22a54 54 0 0 1-13.17-19.23c-1.22-3.26-2.5-7.17-3-11.09-.52-3.91-.25-7.85 1.66-11.15a9.4 9.4 0 0 1 7.4-4.5h.01l.36.01c1.79.06 3.56.51 5.1 1.17l1.02.54q.5.27 1.02.45a3 3 0 0 0 2.15-.06c1.16-.44 2.02-1.67 2.76-3.07q.55-1.07 1.03-2.1a19.52 19.52 0 0 1 8.06-8.33l.59-.31c6.13-3.26 13.72-4.36 20.78-4.59ZM19.36 218.54q7.3-1.05 14.61.7l.94.2c9.67 2.25 19.01 7.7 25.56 14.03.43.37.63.82.65 1.26q.01.68-.44 1.22a2.4 2.4 0 0 1-2.8.56 104 104 0 0 1-7.2-3.91c-2.39-1.39-4.78-2.8-7.24-4.1-4.9-2.58-10.08-4.66-15.98-5.01-5.36-.46-10.18 1.15-15.32 2.32-2.7.7-5.14 1.17-7.85 1.4-1.1.12-2.21.18-3.33.32-1.1.15-2.16.38-3.08.83a7 7 0 0 0-2.25 1.97c-.67.78-1.36 1.62-2.33 2.21a11 11 0 0 1-5.45 1.42q-.83.08-1.67.05t-1.64.01c-1.07.06-2.03.29-2.8 1.06l-.01.01a7 7 0 0 0-1.51 2.1q-.3.61-.57 1.25-.28.64-.58 1.26c-3.55 6.36-11.44 8.92-19.26 10.09-2.3.35-4.53.52-6.75.67-2.23.14-4.45.26-6.74.5-5.1.45-9.13 1.61-13.71 3.24h-.02q-.46.1-.97-.02c-.32-.07-.65-.2-.9-.37s-.46-.4-.5-.67q-.1-.43.34-.81c3.4-3.88 8.44-5.4 13.77-6.16 2.67-.38 5.42-.57 8.1-.76a93 93 0 0 0 6.71-.66l.9-.15c4.31-.93 8.58-2.09 11.5-5.07h.01c1.46-1.38 2.33-3.1 3.28-4.8s1.97-3.35 3.75-4.53a9.3 9.3 0 0 1 5.34-1.65h.4q1.11-.09 2-.1t1.66-.14a5.3 5.3 0 0 0 2.98-1.59 17 17 0 0 1 4.87-3.6c1.74-.8 3.71-1.21 6.29-1.33 3.08-.11 5.9-.7 8.7-1.36s5.56-1.43 8.54-1.9Z"/></svg>